%TF.GenerationSoftware,KiCad,Pcbnew,(6.0.4-0)*%
%TF.CreationDate,2022-04-04T05:09:50+09:00*%
%TF.ProjectId,mytenkey,6d797465-6e6b-4657-992e-6b696361645f,rev?*%
%TF.SameCoordinates,Original*%
%TF.FileFunction,Legend,Bot*%
%TF.FilePolarity,Positive*%
%FSLAX46Y46*%
G04 Gerber Fmt 4.6, Leading zero omitted, Abs format (unit mm)*
G04 Created by KiCad (PCBNEW (6.0.4-0)) date 2022-04-04 05:09:50*
%MOMM*%
%LPD*%
G01*
G04 APERTURE LIST*
%ADD10C,0.150000*%
%ADD11C,0.120000*%
G04 APERTURE END LIST*
D10*
X99035285Y-139930142D02*
X99082904Y-139977761D01*
X99225761Y-140025380D01*
X99321000Y-140025380D01*
X99463857Y-139977761D01*
X99559095Y-139882523D01*
X99606714Y-139787285D01*
X99654333Y-139596809D01*
X99654333Y-139453952D01*
X99606714Y-139263476D01*
X99559095Y-139168238D01*
X99463857Y-139073000D01*
X99321000Y-139025380D01*
X99225761Y-139025380D01*
X99082904Y-139073000D01*
X99035285Y-139120619D01*
X98463857Y-140025380D02*
X98559095Y-139977761D01*
X98606714Y-139930142D01*
X98654333Y-139834904D01*
X98654333Y-139549190D01*
X98606714Y-139453952D01*
X98559095Y-139406333D01*
X98463857Y-139358714D01*
X98321000Y-139358714D01*
X98225761Y-139406333D01*
X98178142Y-139453952D01*
X98130523Y-139549190D01*
X98130523Y-139834904D01*
X98178142Y-139930142D01*
X98225761Y-139977761D01*
X98321000Y-140025380D01*
X98463857Y-140025380D01*
X97701952Y-140025380D02*
X97701952Y-139358714D01*
X97701952Y-139453952D02*
X97654333Y-139406333D01*
X97559095Y-139358714D01*
X97416238Y-139358714D01*
X97321000Y-139406333D01*
X97273380Y-139501571D01*
X97273380Y-140025380D01*
X97273380Y-139501571D02*
X97225761Y-139406333D01*
X97130523Y-139358714D01*
X96987666Y-139358714D01*
X96892428Y-139406333D01*
X96844809Y-139501571D01*
X96844809Y-140025380D01*
X96368619Y-140025380D02*
X96368619Y-139025380D01*
X96368619Y-139406333D02*
X96273380Y-139358714D01*
X96082904Y-139358714D01*
X95987666Y-139406333D01*
X95940047Y-139453952D01*
X95892428Y-139549190D01*
X95892428Y-139834904D01*
X95940047Y-139930142D01*
X95987666Y-139977761D01*
X96082904Y-140025380D01*
X96273380Y-140025380D01*
X96368619Y-139977761D01*
X95463857Y-140025380D02*
X95463857Y-139358714D01*
X95463857Y-139025380D02*
X95511476Y-139073000D01*
X95463857Y-139120619D01*
X95416238Y-139073000D01*
X95463857Y-139025380D01*
X95463857Y-139120619D01*
X94463857Y-140025380D02*
X95035285Y-140025380D01*
X94749571Y-140025380D02*
X94749571Y-139025380D01*
X94844809Y-139168238D01*
X94940047Y-139263476D01*
X95035285Y-139311095D01*
X93844809Y-139025380D02*
X93749571Y-139025380D01*
X93654333Y-139073000D01*
X93606714Y-139120619D01*
X93559095Y-139215857D01*
X93511476Y-139406333D01*
X93511476Y-139644428D01*
X93559095Y-139834904D01*
X93606714Y-139930142D01*
X93654333Y-139977761D01*
X93749571Y-140025380D01*
X93844809Y-140025380D01*
X93940047Y-139977761D01*
X93987666Y-139930142D01*
X94035285Y-139834904D01*
X94082904Y-139644428D01*
X94082904Y-139406333D01*
X94035285Y-139215857D01*
X93987666Y-139120619D01*
X93940047Y-139073000D01*
X93844809Y-139025380D01*
X92559095Y-140025380D02*
X93130523Y-140025380D01*
X92844809Y-140025380D02*
X92844809Y-139025380D01*
X92940047Y-139168238D01*
X93035285Y-139263476D01*
X93130523Y-139311095D01*
X91701952Y-139025380D02*
X91892428Y-139025380D01*
X91987666Y-139073000D01*
X92035285Y-139120619D01*
X92130523Y-139263476D01*
X92178142Y-139453952D01*
X92178142Y-139834904D01*
X92130523Y-139930142D01*
X92082904Y-139977761D01*
X91987666Y-140025380D01*
X91797190Y-140025380D01*
X91701952Y-139977761D01*
X91654333Y-139930142D01*
X91606714Y-139834904D01*
X91606714Y-139596809D01*
X91654333Y-139501571D01*
X91701952Y-139453952D01*
X91797190Y-139406333D01*
X91987666Y-139406333D01*
X92082904Y-139453952D01*
X92130523Y-139501571D01*
X92178142Y-139596809D01*
X90416238Y-140025380D02*
X90416238Y-139025380D01*
X89844809Y-140025380D02*
X90273380Y-139453952D01*
X89844809Y-139025380D02*
X90416238Y-139596809D01*
X89035285Y-139977761D02*
X89130523Y-140025380D01*
X89321000Y-140025380D01*
X89416238Y-139977761D01*
X89463857Y-139882523D01*
X89463857Y-139501571D01*
X89416238Y-139406333D01*
X89321000Y-139358714D01*
X89130523Y-139358714D01*
X89035285Y-139406333D01*
X88987666Y-139501571D01*
X88987666Y-139596809D01*
X89463857Y-139692047D01*
X88654333Y-139358714D02*
X88416238Y-140025380D01*
X88178142Y-139358714D02*
X88416238Y-140025380D01*
X88511476Y-140263476D01*
X88559095Y-140311095D01*
X88654333Y-140358714D01*
X87797190Y-140025380D02*
X87797190Y-139025380D01*
X87797190Y-139406333D02*
X87701952Y-139358714D01*
X87511476Y-139358714D01*
X87416238Y-139406333D01*
X87368619Y-139453952D01*
X87321000Y-139549190D01*
X87321000Y-139834904D01*
X87368619Y-139930142D01*
X87416238Y-139977761D01*
X87511476Y-140025380D01*
X87701952Y-140025380D01*
X87797190Y-139977761D01*
X86749571Y-140025380D02*
X86844809Y-139977761D01*
X86892428Y-139930142D01*
X86940047Y-139834904D01*
X86940047Y-139549190D01*
X86892428Y-139453952D01*
X86844809Y-139406333D01*
X86749571Y-139358714D01*
X86606714Y-139358714D01*
X86511476Y-139406333D01*
X86463857Y-139453952D01*
X86416238Y-139549190D01*
X86416238Y-139834904D01*
X86463857Y-139930142D01*
X86511476Y-139977761D01*
X86606714Y-140025380D01*
X86749571Y-140025380D01*
X85559095Y-140025380D02*
X85559095Y-139501571D01*
X85606714Y-139406333D01*
X85701952Y-139358714D01*
X85892428Y-139358714D01*
X85987666Y-139406333D01*
X85559095Y-139977761D02*
X85654333Y-140025380D01*
X85892428Y-140025380D01*
X85987666Y-139977761D01*
X86035285Y-139882523D01*
X86035285Y-139787285D01*
X85987666Y-139692047D01*
X85892428Y-139644428D01*
X85654333Y-139644428D01*
X85559095Y-139596809D01*
X85082904Y-140025380D02*
X85082904Y-139358714D01*
X85082904Y-139549190D02*
X85035285Y-139453952D01*
X84987666Y-139406333D01*
X84892428Y-139358714D01*
X84797190Y-139358714D01*
X84035285Y-140025380D02*
X84035285Y-139025380D01*
X84035285Y-139977761D02*
X84130523Y-140025380D01*
X84321000Y-140025380D01*
X84416238Y-139977761D01*
X84463857Y-139930142D01*
X84511476Y-139834904D01*
X84511476Y-139549190D01*
X84463857Y-139453952D01*
X84416238Y-139406333D01*
X84321000Y-139358714D01*
X84130523Y-139358714D01*
X84035285Y-139406333D01*
X147273780Y-51379380D02*
X147607114Y-50903190D01*
X147845209Y-51379380D02*
X147845209Y-50379380D01*
X147464257Y-50379380D01*
X147369019Y-50427000D01*
X147321400Y-50474619D01*
X147273780Y-50569857D01*
X147273780Y-50712714D01*
X147321400Y-50807952D01*
X147369019Y-50855571D01*
X147464257Y-50903190D01*
X147845209Y-50903190D01*
X146845209Y-50855571D02*
X146511876Y-50855571D01*
X146369019Y-51379380D02*
X146845209Y-51379380D01*
X146845209Y-50379380D01*
X146369019Y-50379380D01*
X145988066Y-51331761D02*
X145845209Y-51379380D01*
X145607114Y-51379380D01*
X145511876Y-51331761D01*
X145464257Y-51284142D01*
X145416638Y-51188904D01*
X145416638Y-51093666D01*
X145464257Y-50998428D01*
X145511876Y-50950809D01*
X145607114Y-50903190D01*
X145797590Y-50855571D01*
X145892828Y-50807952D01*
X145940447Y-50760333D01*
X145988066Y-50665095D01*
X145988066Y-50569857D01*
X145940447Y-50474619D01*
X145892828Y-50427000D01*
X145797590Y-50379380D01*
X145559495Y-50379380D01*
X145416638Y-50427000D01*
X144988066Y-50855571D02*
X144654733Y-50855571D01*
X144511876Y-51379380D02*
X144988066Y-51379380D01*
X144988066Y-50379380D01*
X144511876Y-50379380D01*
X144226161Y-50379380D02*
X143654733Y-50379380D01*
X143940447Y-51379380D02*
X143940447Y-50379380D01*
D11*
%TO.C,SW24*%
X143100200Y-48661600D02*
X143100200Y-54661600D01*
X139500200Y-48661600D02*
X139500200Y-54661600D01*
%TD*%
M02*
