%TF.GenerationSoftware,KiCad,Pcbnew,(6.0.4-0)*%
%TF.CreationDate,2022-04-04T05:09:50+09:00*%
%TF.ProjectId,mytenkey,6d797465-6e6b-4657-992e-6b696361645f,rev?*%
%TF.SameCoordinates,Original*%
%TF.FileFunction,Legend,Top*%
%TF.FilePolarity,Positive*%
%FSLAX46Y46*%
G04 Gerber Fmt 4.6, Leading zero omitted, Abs format (unit mm)*
G04 Created by KiCad (PCBNEW (6.0.4-0)) date 2022-04-04 05:09:50*
%MOMM*%
%LPD*%
G01*
G04 APERTURE LIST*
%ADD10C,0.150000*%
%ADD11C,0.120000*%
G04 APERTURE END LIST*
D10*
X119309523Y-76652380D02*
X118738095Y-76652380D01*
X119023809Y-76652380D02*
X119023809Y-75652380D01*
X118928571Y-75795238D01*
X118833333Y-75890476D01*
X118738095Y-75938095D01*
X119690476Y-75747619D02*
X119738095Y-75700000D01*
X119833333Y-75652380D01*
X120071428Y-75652380D01*
X120166666Y-75700000D01*
X120214285Y-75747619D01*
X120261904Y-75842857D01*
X120261904Y-75938095D01*
X120214285Y-76080952D01*
X119642857Y-76652380D01*
X120261904Y-76652380D01*
X119847619Y-51604761D02*
X120847619Y-51604761D01*
X120847619Y-51985714D01*
X120800000Y-52080952D01*
X120752380Y-52128571D01*
X120657142Y-52176190D01*
X120514285Y-52176190D01*
X120419047Y-52128571D01*
X120371428Y-52080952D01*
X120323809Y-51985714D01*
X120323809Y-51604761D01*
X119847619Y-52604761D02*
X120514285Y-52604761D01*
X120323809Y-52604761D02*
X120419047Y-52652380D01*
X120466666Y-52699999D01*
X120514285Y-52795238D01*
X120514285Y-52890476D01*
X119847619Y-53366666D02*
X119895238Y-53271428D01*
X119942857Y-53223809D01*
X120038095Y-53176190D01*
X120323809Y-53176190D01*
X120419047Y-53223809D01*
X120466666Y-53271428D01*
X120514285Y-53366666D01*
X120514285Y-53509523D01*
X120466666Y-53604761D01*
X120419047Y-53652380D01*
X120323809Y-53699999D01*
X120038095Y-53699999D01*
X119942857Y-53652380D01*
X119895238Y-53604761D01*
X119847619Y-53509523D01*
X119847619Y-53366666D01*
X119847619Y-54890476D02*
X120847619Y-54890476D01*
X120133333Y-55223809D01*
X120847619Y-55557142D01*
X119847619Y-55557142D01*
X119847619Y-56033333D02*
X120514285Y-56033333D01*
X120847619Y-56033333D02*
X120800000Y-55985714D01*
X120752380Y-56033333D01*
X120800000Y-56080952D01*
X120847619Y-56033333D01*
X120752380Y-56033333D01*
X119895238Y-56938095D02*
X119847619Y-56842857D01*
X119847619Y-56652380D01*
X119895238Y-56557142D01*
X119942857Y-56509523D01*
X120038095Y-56461904D01*
X120323809Y-56461904D01*
X120419047Y-56509523D01*
X120466666Y-56557142D01*
X120514285Y-56652380D01*
X120514285Y-56842857D01*
X120466666Y-56938095D01*
X119847619Y-57366666D02*
X120514285Y-57366666D01*
X120323809Y-57366666D02*
X120419047Y-57414285D01*
X120466666Y-57461904D01*
X120514285Y-57557142D01*
X120514285Y-57652380D01*
X119847619Y-58128571D02*
X119895238Y-58033333D01*
X119942857Y-57985714D01*
X120038095Y-57938095D01*
X120323809Y-57938095D01*
X120419047Y-57985714D01*
X120466666Y-58033333D01*
X120514285Y-58128571D01*
X120514285Y-58271428D01*
X120466666Y-58366666D01*
X120419047Y-58414285D01*
X120323809Y-58461904D01*
X120038095Y-58461904D01*
X119942857Y-58414285D01*
X119895238Y-58366666D01*
X119847619Y-58271428D01*
X119847619Y-58128571D01*
X119466666Y-59938095D02*
X119514285Y-59890476D01*
X119657142Y-59795238D01*
X119752380Y-59747619D01*
X119895238Y-59699999D01*
X120133333Y-59652380D01*
X120323809Y-59652380D01*
X120561904Y-59699999D01*
X120704761Y-59747619D01*
X120800000Y-59795238D01*
X120942857Y-59890476D01*
X120990476Y-59938095D01*
X120514285Y-60747619D02*
X119847619Y-60747619D01*
X120514285Y-60319047D02*
X119990476Y-60319047D01*
X119895238Y-60366666D01*
X119847619Y-60461904D01*
X119847619Y-60604761D01*
X119895238Y-60699999D01*
X119942857Y-60747619D01*
X120514285Y-61223809D02*
X119847619Y-61223809D01*
X120419047Y-61223809D02*
X120466666Y-61271428D01*
X120514285Y-61366666D01*
X120514285Y-61509523D01*
X120466666Y-61604761D01*
X120371428Y-61652380D01*
X119847619Y-61652380D01*
X119847619Y-62557142D02*
X120847619Y-62557142D01*
X119895238Y-62557142D02*
X119847619Y-62461904D01*
X119847619Y-62271428D01*
X119895238Y-62176190D01*
X119942857Y-62128571D01*
X120038095Y-62080952D01*
X120323809Y-62080952D01*
X120419047Y-62128571D01*
X120466666Y-62176190D01*
X120514285Y-62271428D01*
X120514285Y-62461904D01*
X120466666Y-62557142D01*
X119895238Y-63414285D02*
X119847619Y-63319047D01*
X119847619Y-63128571D01*
X119895238Y-63033333D01*
X119990476Y-62985714D01*
X120371428Y-62985714D01*
X120466666Y-63033333D01*
X120514285Y-63128571D01*
X120514285Y-63319047D01*
X120466666Y-63414285D01*
X120371428Y-63461904D01*
X120276190Y-63461904D01*
X120180952Y-62985714D01*
X119847619Y-63890476D02*
X120514285Y-63890476D01*
X120323809Y-63890476D02*
X120419047Y-63938095D01*
X120466666Y-63985714D01*
X120514285Y-64080952D01*
X120514285Y-64176190D01*
X120514285Y-65128571D02*
X120514285Y-65509523D01*
X120847619Y-65271428D02*
X119990476Y-65271428D01*
X119895238Y-65319047D01*
X119847619Y-65414285D01*
X119847619Y-65509523D01*
X119847619Y-65842857D02*
X120847619Y-65842857D01*
X119847619Y-66271428D02*
X120371428Y-66271428D01*
X120466666Y-66223809D01*
X120514285Y-66128571D01*
X120514285Y-65985714D01*
X120466666Y-65890476D01*
X120419047Y-65842857D01*
X119895238Y-67128571D02*
X119847619Y-67033333D01*
X119847619Y-66842857D01*
X119895238Y-66747619D01*
X119990476Y-66699999D01*
X120371428Y-66699999D01*
X120466666Y-66747619D01*
X120514285Y-66842857D01*
X120514285Y-67033333D01*
X120466666Y-67128571D01*
X120371428Y-67176190D01*
X120276190Y-67176190D01*
X120180952Y-66699999D01*
X119847619Y-68366666D02*
X120847619Y-68366666D01*
X120466666Y-68366666D02*
X120514285Y-68461904D01*
X120514285Y-68652380D01*
X120466666Y-68747619D01*
X120419047Y-68795238D01*
X120323809Y-68842857D01*
X120038095Y-68842857D01*
X119942857Y-68795238D01*
X119895238Y-68747619D01*
X119847619Y-68652380D01*
X119847619Y-68461904D01*
X119895238Y-68366666D01*
X119847619Y-69414285D02*
X119895238Y-69319047D01*
X119942857Y-69271428D01*
X120038095Y-69223809D01*
X120323809Y-69223809D01*
X120419047Y-69271428D01*
X120466666Y-69319047D01*
X120514285Y-69414285D01*
X120514285Y-69557142D01*
X120466666Y-69652380D01*
X120419047Y-69699999D01*
X120323809Y-69747619D01*
X120038095Y-69747619D01*
X119942857Y-69699999D01*
X119895238Y-69652380D01*
X119847619Y-69557142D01*
X119847619Y-69414285D01*
X119847619Y-70604761D02*
X120371428Y-70604761D01*
X120466666Y-70557142D01*
X120514285Y-70461904D01*
X120514285Y-70271428D01*
X120466666Y-70176190D01*
X119895238Y-70604761D02*
X119847619Y-70509523D01*
X119847619Y-70271428D01*
X119895238Y-70176190D01*
X119990476Y-70128571D01*
X120085714Y-70128571D01*
X120180952Y-70176190D01*
X120228571Y-70271428D01*
X120228571Y-70509523D01*
X120276190Y-70604761D01*
X119847619Y-71080952D02*
X120514285Y-71080952D01*
X120323809Y-71080952D02*
X120419047Y-71128571D01*
X120466666Y-71176190D01*
X120514285Y-71271428D01*
X120514285Y-71366666D01*
X119847619Y-72128571D02*
X120847619Y-72128571D01*
X119895238Y-72128571D02*
X119847619Y-72033333D01*
X119847619Y-71842857D01*
X119895238Y-71747619D01*
X119942857Y-71699999D01*
X120038095Y-71652380D01*
X120323809Y-71652380D01*
X120419047Y-71699999D01*
X120466666Y-71747619D01*
X120514285Y-71842857D01*
X120514285Y-72033333D01*
X120466666Y-72128571D01*
X119466666Y-72509523D02*
X119514285Y-72557142D01*
X119657142Y-72652380D01*
X119752380Y-72699999D01*
X119895238Y-72747619D01*
X120133333Y-72795238D01*
X120323809Y-72795238D01*
X120561904Y-72747619D01*
X120704761Y-72699999D01*
X120800000Y-72652380D01*
X120942857Y-72557142D01*
X120990476Y-72509523D01*
X120285714Y-48652380D02*
X119714285Y-48652380D01*
X120000000Y-48652380D02*
X120000000Y-47652380D01*
X119904761Y-47795238D01*
X119809523Y-47890476D01*
X119714285Y-47938095D01*
X127890476Y-83716761D02*
X128033333Y-83764380D01*
X128271428Y-83764380D01*
X128366666Y-83716761D01*
X128414285Y-83669142D01*
X128461904Y-83573904D01*
X128461904Y-83478666D01*
X128414285Y-83383428D01*
X128366666Y-83335809D01*
X128271428Y-83288190D01*
X128080952Y-83240571D01*
X127985714Y-83192952D01*
X127938095Y-83145333D01*
X127890476Y-83050095D01*
X127890476Y-82954857D01*
X127938095Y-82859619D01*
X127985714Y-82812000D01*
X128080952Y-82764380D01*
X128319047Y-82764380D01*
X128461904Y-82812000D01*
X128795238Y-82764380D02*
X129033333Y-83764380D01*
X129223809Y-83050095D01*
X129414285Y-83764380D01*
X129652380Y-82764380D01*
X130557142Y-83764380D02*
X129985714Y-83764380D01*
X130271428Y-83764380D02*
X130271428Y-82764380D01*
X130176190Y-82907238D01*
X130080952Y-83002476D01*
X129985714Y-83050095D01*
X130938095Y-82859619D02*
X130985714Y-82812000D01*
X131080952Y-82764380D01*
X131319047Y-82764380D01*
X131414285Y-82812000D01*
X131461904Y-82859619D01*
X131509523Y-82954857D01*
X131509523Y-83050095D01*
X131461904Y-83192952D01*
X130890476Y-83764380D01*
X131509523Y-83764380D01*
X139909523Y-76552380D02*
X139338095Y-76552380D01*
X139623809Y-76552380D02*
X139623809Y-75552380D01*
X139528571Y-75695238D01*
X139433333Y-75790476D01*
X139338095Y-75838095D01*
X140242857Y-75552380D02*
X140861904Y-75552380D01*
X140528571Y-75933333D01*
X140671428Y-75933333D01*
X140766666Y-75980952D01*
X140814285Y-76028571D01*
X140861904Y-76123809D01*
X140861904Y-76361904D01*
X140814285Y-76457142D01*
X140766666Y-76504761D01*
X140671428Y-76552380D01*
X140385714Y-76552380D01*
X140290476Y-76504761D01*
X140242857Y-76457142D01*
X160679714Y-140311142D02*
X160632095Y-140358761D01*
X160489238Y-140406380D01*
X160394000Y-140406380D01*
X160251142Y-140358761D01*
X160155904Y-140263523D01*
X160108285Y-140168285D01*
X160060666Y-139977809D01*
X160060666Y-139834952D01*
X160108285Y-139644476D01*
X160155904Y-139549238D01*
X160251142Y-139454000D01*
X160394000Y-139406380D01*
X160489238Y-139406380D01*
X160632095Y-139454000D01*
X160679714Y-139501619D01*
X161251142Y-140406380D02*
X161155904Y-140358761D01*
X161108285Y-140311142D01*
X161060666Y-140215904D01*
X161060666Y-139930190D01*
X161108285Y-139834952D01*
X161155904Y-139787333D01*
X161251142Y-139739714D01*
X161394000Y-139739714D01*
X161489238Y-139787333D01*
X161536857Y-139834952D01*
X161584476Y-139930190D01*
X161584476Y-140215904D01*
X161536857Y-140311142D01*
X161489238Y-140358761D01*
X161394000Y-140406380D01*
X161251142Y-140406380D01*
X162013047Y-140406380D02*
X162013047Y-139739714D01*
X162013047Y-139834952D02*
X162060666Y-139787333D01*
X162155904Y-139739714D01*
X162298761Y-139739714D01*
X162394000Y-139787333D01*
X162441619Y-139882571D01*
X162441619Y-140406380D01*
X162441619Y-139882571D02*
X162489238Y-139787333D01*
X162584476Y-139739714D01*
X162727333Y-139739714D01*
X162822571Y-139787333D01*
X162870190Y-139882571D01*
X162870190Y-140406380D01*
X163346380Y-140406380D02*
X163346380Y-139406380D01*
X163346380Y-139787333D02*
X163441619Y-139739714D01*
X163632095Y-139739714D01*
X163727333Y-139787333D01*
X163774952Y-139834952D01*
X163822571Y-139930190D01*
X163822571Y-140215904D01*
X163774952Y-140311142D01*
X163727333Y-140358761D01*
X163632095Y-140406380D01*
X163441619Y-140406380D01*
X163346380Y-140358761D01*
X164251142Y-140406380D02*
X164251142Y-139739714D01*
X164251142Y-139406380D02*
X164203523Y-139454000D01*
X164251142Y-139501619D01*
X164298761Y-139454000D01*
X164251142Y-139406380D01*
X164251142Y-139501619D01*
X165251142Y-140406380D02*
X164679714Y-140406380D01*
X164965428Y-140406380D02*
X164965428Y-139406380D01*
X164870190Y-139549238D01*
X164774952Y-139644476D01*
X164679714Y-139692095D01*
X165870190Y-139406380D02*
X165965428Y-139406380D01*
X166060666Y-139454000D01*
X166108285Y-139501619D01*
X166155904Y-139596857D01*
X166203523Y-139787333D01*
X166203523Y-140025428D01*
X166155904Y-140215904D01*
X166108285Y-140311142D01*
X166060666Y-140358761D01*
X165965428Y-140406380D01*
X165870190Y-140406380D01*
X165774952Y-140358761D01*
X165727333Y-140311142D01*
X165679714Y-140215904D01*
X165632095Y-140025428D01*
X165632095Y-139787333D01*
X165679714Y-139596857D01*
X165727333Y-139501619D01*
X165774952Y-139454000D01*
X165870190Y-139406380D01*
X167155904Y-140406380D02*
X166584476Y-140406380D01*
X166870190Y-140406380D02*
X166870190Y-139406380D01*
X166774952Y-139549238D01*
X166679714Y-139644476D01*
X166584476Y-139692095D01*
X168013047Y-139406380D02*
X167822571Y-139406380D01*
X167727333Y-139454000D01*
X167679714Y-139501619D01*
X167584476Y-139644476D01*
X167536857Y-139834952D01*
X167536857Y-140215904D01*
X167584476Y-140311142D01*
X167632095Y-140358761D01*
X167727333Y-140406380D01*
X167917809Y-140406380D01*
X168013047Y-140358761D01*
X168060666Y-140311142D01*
X168108285Y-140215904D01*
X168108285Y-139977809D01*
X168060666Y-139882571D01*
X168013047Y-139834952D01*
X167917809Y-139787333D01*
X167727333Y-139787333D01*
X167632095Y-139834952D01*
X167584476Y-139882571D01*
X167536857Y-139977809D01*
X169298761Y-140406380D02*
X169298761Y-139406380D01*
X169870190Y-140406380D02*
X169441619Y-139834952D01*
X169870190Y-139406380D02*
X169298761Y-139977809D01*
X170679714Y-140358761D02*
X170584476Y-140406380D01*
X170394000Y-140406380D01*
X170298761Y-140358761D01*
X170251142Y-140263523D01*
X170251142Y-139882571D01*
X170298761Y-139787333D01*
X170394000Y-139739714D01*
X170584476Y-139739714D01*
X170679714Y-139787333D01*
X170727333Y-139882571D01*
X170727333Y-139977809D01*
X170251142Y-140073047D01*
X171060666Y-139739714D02*
X171298761Y-140406380D01*
X171536857Y-139739714D02*
X171298761Y-140406380D01*
X171203523Y-140644476D01*
X171155904Y-140692095D01*
X171060666Y-140739714D01*
X171917809Y-140406380D02*
X171917809Y-139406380D01*
X171917809Y-139787333D02*
X172013047Y-139739714D01*
X172203523Y-139739714D01*
X172298761Y-139787333D01*
X172346380Y-139834952D01*
X172394000Y-139930190D01*
X172394000Y-140215904D01*
X172346380Y-140311142D01*
X172298761Y-140358761D01*
X172203523Y-140406380D01*
X172013047Y-140406380D01*
X171917809Y-140358761D01*
X172965428Y-140406380D02*
X172870190Y-140358761D01*
X172822571Y-140311142D01*
X172774952Y-140215904D01*
X172774952Y-139930190D01*
X172822571Y-139834952D01*
X172870190Y-139787333D01*
X172965428Y-139739714D01*
X173108285Y-139739714D01*
X173203523Y-139787333D01*
X173251142Y-139834952D01*
X173298761Y-139930190D01*
X173298761Y-140215904D01*
X173251142Y-140311142D01*
X173203523Y-140358761D01*
X173108285Y-140406380D01*
X172965428Y-140406380D01*
X174155904Y-140406380D02*
X174155904Y-139882571D01*
X174108285Y-139787333D01*
X174013047Y-139739714D01*
X173822571Y-139739714D01*
X173727333Y-139787333D01*
X174155904Y-140358761D02*
X174060666Y-140406380D01*
X173822571Y-140406380D01*
X173727333Y-140358761D01*
X173679714Y-140263523D01*
X173679714Y-140168285D01*
X173727333Y-140073047D01*
X173822571Y-140025428D01*
X174060666Y-140025428D01*
X174155904Y-139977809D01*
X174632095Y-140406380D02*
X174632095Y-139739714D01*
X174632095Y-139930190D02*
X174679714Y-139834952D01*
X174727333Y-139787333D01*
X174822571Y-139739714D01*
X174917809Y-139739714D01*
X175679714Y-140406380D02*
X175679714Y-139406380D01*
X175679714Y-140358761D02*
X175584476Y-140406380D01*
X175394000Y-140406380D01*
X175298761Y-140358761D01*
X175251142Y-140311142D01*
X175203523Y-140215904D01*
X175203523Y-139930190D01*
X175251142Y-139834952D01*
X175298761Y-139787333D01*
X175394000Y-139739714D01*
X175584476Y-139739714D01*
X175679714Y-139787333D01*
%TO.C,D23*%
X166250714Y-115302380D02*
X166250714Y-114302380D01*
X166488809Y-114302380D01*
X166631666Y-114350000D01*
X166726904Y-114445238D01*
X166774523Y-114540476D01*
X166822142Y-114730952D01*
X166822142Y-114873809D01*
X166774523Y-115064285D01*
X166726904Y-115159523D01*
X166631666Y-115254761D01*
X166488809Y-115302380D01*
X166250714Y-115302380D01*
X167203095Y-114397619D02*
X167250714Y-114350000D01*
X167345952Y-114302380D01*
X167584047Y-114302380D01*
X167679285Y-114350000D01*
X167726904Y-114397619D01*
X167774523Y-114492857D01*
X167774523Y-114588095D01*
X167726904Y-114730952D01*
X167155476Y-115302380D01*
X167774523Y-115302380D01*
X168107857Y-114302380D02*
X168726904Y-114302380D01*
X168393571Y-114683333D01*
X168536428Y-114683333D01*
X168631666Y-114730952D01*
X168679285Y-114778571D01*
X168726904Y-114873809D01*
X168726904Y-115111904D01*
X168679285Y-115207142D01*
X168631666Y-115254761D01*
X168536428Y-115302380D01*
X168250714Y-115302380D01*
X168155476Y-115254761D01*
X168107857Y-115207142D01*
%TO.C,SW22*%
X166290476Y-103189761D02*
X166433333Y-103237380D01*
X166671428Y-103237380D01*
X166766666Y-103189761D01*
X166814285Y-103142142D01*
X166861904Y-103046904D01*
X166861904Y-102951666D01*
X166814285Y-102856428D01*
X166766666Y-102808809D01*
X166671428Y-102761190D01*
X166480952Y-102713571D01*
X166385714Y-102665952D01*
X166338095Y-102618333D01*
X166290476Y-102523095D01*
X166290476Y-102427857D01*
X166338095Y-102332619D01*
X166385714Y-102285000D01*
X166480952Y-102237380D01*
X166719047Y-102237380D01*
X166861904Y-102285000D01*
X167195238Y-102237380D02*
X167433333Y-103237380D01*
X167623809Y-102523095D01*
X167814285Y-103237380D01*
X168052380Y-102237380D01*
X168385714Y-102332619D02*
X168433333Y-102285000D01*
X168528571Y-102237380D01*
X168766666Y-102237380D01*
X168861904Y-102285000D01*
X168909523Y-102332619D01*
X168957142Y-102427857D01*
X168957142Y-102523095D01*
X168909523Y-102665952D01*
X168338095Y-103237380D01*
X168957142Y-103237380D01*
X169338095Y-102332619D02*
X169385714Y-102285000D01*
X169480952Y-102237380D01*
X169719047Y-102237380D01*
X169814285Y-102285000D01*
X169861904Y-102332619D01*
X169909523Y-102427857D01*
X169909523Y-102523095D01*
X169861904Y-102665952D01*
X169290476Y-103237380D01*
X169909523Y-103237380D01*
%TO.C,SW15*%
X147240476Y-65089761D02*
X147383333Y-65137380D01*
X147621428Y-65137380D01*
X147716666Y-65089761D01*
X147764285Y-65042142D01*
X147811904Y-64946904D01*
X147811904Y-64851666D01*
X147764285Y-64756428D01*
X147716666Y-64708809D01*
X147621428Y-64661190D01*
X147430952Y-64613571D01*
X147335714Y-64565952D01*
X147288095Y-64518333D01*
X147240476Y-64423095D01*
X147240476Y-64327857D01*
X147288095Y-64232619D01*
X147335714Y-64185000D01*
X147430952Y-64137380D01*
X147669047Y-64137380D01*
X147811904Y-64185000D01*
X148145238Y-64137380D02*
X148383333Y-65137380D01*
X148573809Y-64423095D01*
X148764285Y-65137380D01*
X149002380Y-64137380D01*
X149907142Y-65137380D02*
X149335714Y-65137380D01*
X149621428Y-65137380D02*
X149621428Y-64137380D01*
X149526190Y-64280238D01*
X149430952Y-64375476D01*
X149335714Y-64423095D01*
X150811904Y-64137380D02*
X150335714Y-64137380D01*
X150288095Y-64613571D01*
X150335714Y-64565952D01*
X150430952Y-64518333D01*
X150669047Y-64518333D01*
X150764285Y-64565952D01*
X150811904Y-64613571D01*
X150859523Y-64708809D01*
X150859523Y-64946904D01*
X150811904Y-65042142D01*
X150764285Y-65089761D01*
X150669047Y-65137380D01*
X150430952Y-65137380D01*
X150335714Y-65089761D01*
X150288095Y-65042142D01*
%TO.C,SW3*%
X90566666Y-103189761D02*
X90709523Y-103237380D01*
X90947619Y-103237380D01*
X91042857Y-103189761D01*
X91090476Y-103142142D01*
X91138095Y-103046904D01*
X91138095Y-102951666D01*
X91090476Y-102856428D01*
X91042857Y-102808809D01*
X90947619Y-102761190D01*
X90757142Y-102713571D01*
X90661904Y-102665952D01*
X90614285Y-102618333D01*
X90566666Y-102523095D01*
X90566666Y-102427857D01*
X90614285Y-102332619D01*
X90661904Y-102285000D01*
X90757142Y-102237380D01*
X90995238Y-102237380D01*
X91138095Y-102285000D01*
X91471428Y-102237380D02*
X91709523Y-103237380D01*
X91900000Y-102523095D01*
X92090476Y-103237380D01*
X92328571Y-102237380D01*
X92614285Y-102237380D02*
X93233333Y-102237380D01*
X92900000Y-102618333D01*
X93042857Y-102618333D01*
X93138095Y-102665952D01*
X93185714Y-102713571D01*
X93233333Y-102808809D01*
X93233333Y-103046904D01*
X93185714Y-103142142D01*
X93138095Y-103189761D01*
X93042857Y-103237380D01*
X92757142Y-103237380D01*
X92661904Y-103189761D01*
X92614285Y-103142142D01*
%TO.C,D1*%
X90526904Y-48627380D02*
X90526904Y-47627380D01*
X90765000Y-47627380D01*
X90907857Y-47675000D01*
X91003095Y-47770238D01*
X91050714Y-47865476D01*
X91098333Y-48055952D01*
X91098333Y-48198809D01*
X91050714Y-48389285D01*
X91003095Y-48484523D01*
X90907857Y-48579761D01*
X90765000Y-48627380D01*
X90526904Y-48627380D01*
X92050714Y-48627380D02*
X91479285Y-48627380D01*
X91765000Y-48627380D02*
X91765000Y-47627380D01*
X91669761Y-47770238D01*
X91574523Y-47865476D01*
X91479285Y-47913095D01*
%TO.C,D8*%
X109576904Y-86727380D02*
X109576904Y-85727380D01*
X109815000Y-85727380D01*
X109957857Y-85775000D01*
X110053095Y-85870238D01*
X110100714Y-85965476D01*
X110148333Y-86155952D01*
X110148333Y-86298809D01*
X110100714Y-86489285D01*
X110053095Y-86584523D01*
X109957857Y-86679761D01*
X109815000Y-86727380D01*
X109576904Y-86727380D01*
X110719761Y-86155952D02*
X110624523Y-86108333D01*
X110576904Y-86060714D01*
X110529285Y-85965476D01*
X110529285Y-85917857D01*
X110576904Y-85822619D01*
X110624523Y-85775000D01*
X110719761Y-85727380D01*
X110910238Y-85727380D01*
X111005476Y-85775000D01*
X111053095Y-85822619D01*
X111100714Y-85917857D01*
X111100714Y-85965476D01*
X111053095Y-86060714D01*
X111005476Y-86108333D01*
X110910238Y-86155952D01*
X110719761Y-86155952D01*
X110624523Y-86203571D01*
X110576904Y-86251190D01*
X110529285Y-86346428D01*
X110529285Y-86536904D01*
X110576904Y-86632142D01*
X110624523Y-86679761D01*
X110719761Y-86727380D01*
X110910238Y-86727380D01*
X111005476Y-86679761D01*
X111053095Y-86632142D01*
X111100714Y-86536904D01*
X111100714Y-86346428D01*
X111053095Y-86251190D01*
X111005476Y-86203571D01*
X110910238Y-86155952D01*
%TO.C,D4*%
X90526904Y-105777380D02*
X90526904Y-104777380D01*
X90765000Y-104777380D01*
X90907857Y-104825000D01*
X91003095Y-104920238D01*
X91050714Y-105015476D01*
X91098333Y-105205952D01*
X91098333Y-105348809D01*
X91050714Y-105539285D01*
X91003095Y-105634523D01*
X90907857Y-105729761D01*
X90765000Y-105777380D01*
X90526904Y-105777380D01*
X91955476Y-105110714D02*
X91955476Y-105777380D01*
X91717380Y-104729761D02*
X91479285Y-105444047D01*
X92098333Y-105444047D01*
%TO.C,*%
%TO.C,D22*%
X166250714Y-86727380D02*
X166250714Y-85727380D01*
X166488809Y-85727380D01*
X166631666Y-85775000D01*
X166726904Y-85870238D01*
X166774523Y-85965476D01*
X166822142Y-86155952D01*
X166822142Y-86298809D01*
X166774523Y-86489285D01*
X166726904Y-86584523D01*
X166631666Y-86679761D01*
X166488809Y-86727380D01*
X166250714Y-86727380D01*
X167203095Y-85822619D02*
X167250714Y-85775000D01*
X167345952Y-85727380D01*
X167584047Y-85727380D01*
X167679285Y-85775000D01*
X167726904Y-85822619D01*
X167774523Y-85917857D01*
X167774523Y-86013095D01*
X167726904Y-86155952D01*
X167155476Y-86727380D01*
X167774523Y-86727380D01*
X168155476Y-85822619D02*
X168203095Y-85775000D01*
X168298333Y-85727380D01*
X168536428Y-85727380D01*
X168631666Y-85775000D01*
X168679285Y-85822619D01*
X168726904Y-85917857D01*
X168726904Y-86013095D01*
X168679285Y-86155952D01*
X168107857Y-86727380D01*
X168726904Y-86727380D01*
%TO.C,SW19*%
X147240476Y-141289761D02*
X147383333Y-141337380D01*
X147621428Y-141337380D01*
X147716666Y-141289761D01*
X147764285Y-141242142D01*
X147811904Y-141146904D01*
X147811904Y-141051666D01*
X147764285Y-140956428D01*
X147716666Y-140908809D01*
X147621428Y-140861190D01*
X147430952Y-140813571D01*
X147335714Y-140765952D01*
X147288095Y-140718333D01*
X147240476Y-140623095D01*
X147240476Y-140527857D01*
X147288095Y-140432619D01*
X147335714Y-140385000D01*
X147430952Y-140337380D01*
X147669047Y-140337380D01*
X147811904Y-140385000D01*
X148145238Y-140337380D02*
X148383333Y-141337380D01*
X148573809Y-140623095D01*
X148764285Y-141337380D01*
X149002380Y-140337380D01*
X149907142Y-141337380D02*
X149335714Y-141337380D01*
X149621428Y-141337380D02*
X149621428Y-140337380D01*
X149526190Y-140480238D01*
X149430952Y-140575476D01*
X149335714Y-140623095D01*
X150383333Y-141337380D02*
X150573809Y-141337380D01*
X150669047Y-141289761D01*
X150716666Y-141242142D01*
X150811904Y-141099285D01*
X150859523Y-140908809D01*
X150859523Y-140527857D01*
X150811904Y-140432619D01*
X150764285Y-140385000D01*
X150669047Y-140337380D01*
X150478571Y-140337380D01*
X150383333Y-140385000D01*
X150335714Y-140432619D01*
X150288095Y-140527857D01*
X150288095Y-140765952D01*
X150335714Y-140861190D01*
X150383333Y-140908809D01*
X150478571Y-140956428D01*
X150669047Y-140956428D01*
X150764285Y-140908809D01*
X150811904Y-140861190D01*
X150859523Y-140765952D01*
%TO.C,D10*%
X118625714Y-124827380D02*
X118625714Y-123827380D01*
X118863809Y-123827380D01*
X119006666Y-123875000D01*
X119101904Y-123970238D01*
X119149523Y-124065476D01*
X119197142Y-124255952D01*
X119197142Y-124398809D01*
X119149523Y-124589285D01*
X119101904Y-124684523D01*
X119006666Y-124779761D01*
X118863809Y-124827380D01*
X118625714Y-124827380D01*
X120149523Y-124827380D02*
X119578095Y-124827380D01*
X119863809Y-124827380D02*
X119863809Y-123827380D01*
X119768571Y-123970238D01*
X119673333Y-124065476D01*
X119578095Y-124113095D01*
X120768571Y-123827380D02*
X120863809Y-123827380D01*
X120959047Y-123875000D01*
X121006666Y-123922619D01*
X121054285Y-124017857D01*
X121101904Y-124208333D01*
X121101904Y-124446428D01*
X121054285Y-124636904D01*
X121006666Y-124732142D01*
X120959047Y-124779761D01*
X120863809Y-124827380D01*
X120768571Y-124827380D01*
X120673333Y-124779761D01*
X120625714Y-124732142D01*
X120578095Y-124636904D01*
X120530476Y-124446428D01*
X120530476Y-124208333D01*
X120578095Y-124017857D01*
X120625714Y-123922619D01*
X120673333Y-123875000D01*
X120768571Y-123827380D01*
%TO.C,D20*%
X166250714Y-48627380D02*
X166250714Y-47627380D01*
X166488809Y-47627380D01*
X166631666Y-47675000D01*
X166726904Y-47770238D01*
X166774523Y-47865476D01*
X166822142Y-48055952D01*
X166822142Y-48198809D01*
X166774523Y-48389285D01*
X166726904Y-48484523D01*
X166631666Y-48579761D01*
X166488809Y-48627380D01*
X166250714Y-48627380D01*
X167203095Y-47722619D02*
X167250714Y-47675000D01*
X167345952Y-47627380D01*
X167584047Y-47627380D01*
X167679285Y-47675000D01*
X167726904Y-47722619D01*
X167774523Y-47817857D01*
X167774523Y-47913095D01*
X167726904Y-48055952D01*
X167155476Y-48627380D01*
X167774523Y-48627380D01*
X168393571Y-47627380D02*
X168488809Y-47627380D01*
X168584047Y-47675000D01*
X168631666Y-47722619D01*
X168679285Y-47817857D01*
X168726904Y-48008333D01*
X168726904Y-48246428D01*
X168679285Y-48436904D01*
X168631666Y-48532142D01*
X168584047Y-48579761D01*
X168488809Y-48627380D01*
X168393571Y-48627380D01*
X168298333Y-48579761D01*
X168250714Y-48532142D01*
X168203095Y-48436904D01*
X168155476Y-48246428D01*
X168155476Y-48008333D01*
X168203095Y-47817857D01*
X168250714Y-47722619D01*
X168298333Y-47675000D01*
X168393571Y-47627380D01*
%TO.C,*%
%TO.C,D5*%
X90526904Y-124827380D02*
X90526904Y-123827380D01*
X90765000Y-123827380D01*
X90907857Y-123875000D01*
X91003095Y-123970238D01*
X91050714Y-124065476D01*
X91098333Y-124255952D01*
X91098333Y-124398809D01*
X91050714Y-124589285D01*
X91003095Y-124684523D01*
X90907857Y-124779761D01*
X90765000Y-124827380D01*
X90526904Y-124827380D01*
X92003095Y-123827380D02*
X91526904Y-123827380D01*
X91479285Y-124303571D01*
X91526904Y-124255952D01*
X91622142Y-124208333D01*
X91860238Y-124208333D01*
X91955476Y-124255952D01*
X92003095Y-124303571D01*
X92050714Y-124398809D01*
X92050714Y-124636904D01*
X92003095Y-124732142D01*
X91955476Y-124779761D01*
X91860238Y-124827380D01*
X91622142Y-124827380D01*
X91526904Y-124779761D01*
X91479285Y-124732142D01*
%TO.C,D13*%
X128150714Y-86727380D02*
X128150714Y-85727380D01*
X128388809Y-85727380D01*
X128531666Y-85775000D01*
X128626904Y-85870238D01*
X128674523Y-85965476D01*
X128722142Y-86155952D01*
X128722142Y-86298809D01*
X128674523Y-86489285D01*
X128626904Y-86584523D01*
X128531666Y-86679761D01*
X128388809Y-86727380D01*
X128150714Y-86727380D01*
X129674523Y-86727380D02*
X129103095Y-86727380D01*
X129388809Y-86727380D02*
X129388809Y-85727380D01*
X129293571Y-85870238D01*
X129198333Y-85965476D01*
X129103095Y-86013095D01*
X130007857Y-85727380D02*
X130626904Y-85727380D01*
X130293571Y-86108333D01*
X130436428Y-86108333D01*
X130531666Y-86155952D01*
X130579285Y-86203571D01*
X130626904Y-86298809D01*
X130626904Y-86536904D01*
X130579285Y-86632142D01*
X130531666Y-86679761D01*
X130436428Y-86727380D01*
X130150714Y-86727380D01*
X130055476Y-86679761D01*
X130007857Y-86632142D01*
%TO.C,SW7*%
X109616666Y-84139761D02*
X109759523Y-84187380D01*
X109997619Y-84187380D01*
X110092857Y-84139761D01*
X110140476Y-84092142D01*
X110188095Y-83996904D01*
X110188095Y-83901666D01*
X110140476Y-83806428D01*
X110092857Y-83758809D01*
X109997619Y-83711190D01*
X109807142Y-83663571D01*
X109711904Y-83615952D01*
X109664285Y-83568333D01*
X109616666Y-83473095D01*
X109616666Y-83377857D01*
X109664285Y-83282619D01*
X109711904Y-83235000D01*
X109807142Y-83187380D01*
X110045238Y-83187380D01*
X110188095Y-83235000D01*
X110521428Y-83187380D02*
X110759523Y-84187380D01*
X110950000Y-83473095D01*
X111140476Y-84187380D01*
X111378571Y-83187380D01*
X111664285Y-83187380D02*
X112330952Y-83187380D01*
X111902380Y-84187380D01*
%TO.C,D16*%
X147200714Y-67677380D02*
X147200714Y-66677380D01*
X147438809Y-66677380D01*
X147581666Y-66725000D01*
X147676904Y-66820238D01*
X147724523Y-66915476D01*
X147772142Y-67105952D01*
X147772142Y-67248809D01*
X147724523Y-67439285D01*
X147676904Y-67534523D01*
X147581666Y-67629761D01*
X147438809Y-67677380D01*
X147200714Y-67677380D01*
X148724523Y-67677380D02*
X148153095Y-67677380D01*
X148438809Y-67677380D02*
X148438809Y-66677380D01*
X148343571Y-66820238D01*
X148248333Y-66915476D01*
X148153095Y-66963095D01*
X149581666Y-66677380D02*
X149391190Y-66677380D01*
X149295952Y-66725000D01*
X149248333Y-66772619D01*
X149153095Y-66915476D01*
X149105476Y-67105952D01*
X149105476Y-67486904D01*
X149153095Y-67582142D01*
X149200714Y-67629761D01*
X149295952Y-67677380D01*
X149486428Y-67677380D01*
X149581666Y-67629761D01*
X149629285Y-67582142D01*
X149676904Y-67486904D01*
X149676904Y-67248809D01*
X149629285Y-67153571D01*
X149581666Y-67105952D01*
X149486428Y-67058333D01*
X149295952Y-67058333D01*
X149200714Y-67105952D01*
X149153095Y-67153571D01*
X149105476Y-67248809D01*
%TO.C,SW18*%
X147240476Y-122239761D02*
X147383333Y-122287380D01*
X147621428Y-122287380D01*
X147716666Y-122239761D01*
X147764285Y-122192142D01*
X147811904Y-122096904D01*
X147811904Y-122001666D01*
X147764285Y-121906428D01*
X147716666Y-121858809D01*
X147621428Y-121811190D01*
X147430952Y-121763571D01*
X147335714Y-121715952D01*
X147288095Y-121668333D01*
X147240476Y-121573095D01*
X147240476Y-121477857D01*
X147288095Y-121382619D01*
X147335714Y-121335000D01*
X147430952Y-121287380D01*
X147669047Y-121287380D01*
X147811904Y-121335000D01*
X148145238Y-121287380D02*
X148383333Y-122287380D01*
X148573809Y-121573095D01*
X148764285Y-122287380D01*
X149002380Y-121287380D01*
X149907142Y-122287380D02*
X149335714Y-122287380D01*
X149621428Y-122287380D02*
X149621428Y-121287380D01*
X149526190Y-121430238D01*
X149430952Y-121525476D01*
X149335714Y-121573095D01*
X150478571Y-121715952D02*
X150383333Y-121668333D01*
X150335714Y-121620714D01*
X150288095Y-121525476D01*
X150288095Y-121477857D01*
X150335714Y-121382619D01*
X150383333Y-121335000D01*
X150478571Y-121287380D01*
X150669047Y-121287380D01*
X150764285Y-121335000D01*
X150811904Y-121382619D01*
X150859523Y-121477857D01*
X150859523Y-121525476D01*
X150811904Y-121620714D01*
X150764285Y-121668333D01*
X150669047Y-121715952D01*
X150478571Y-121715952D01*
X150383333Y-121763571D01*
X150335714Y-121811190D01*
X150288095Y-121906428D01*
X150288095Y-122096904D01*
X150335714Y-122192142D01*
X150383333Y-122239761D01*
X150478571Y-122287380D01*
X150669047Y-122287380D01*
X150764285Y-122239761D01*
X150811904Y-122192142D01*
X150859523Y-122096904D01*
X150859523Y-121906428D01*
X150811904Y-121811190D01*
X150764285Y-121763571D01*
X150669047Y-121715952D01*
%TO.C,SW5*%
X90566666Y-141289761D02*
X90709523Y-141337380D01*
X90947619Y-141337380D01*
X91042857Y-141289761D01*
X91090476Y-141242142D01*
X91138095Y-141146904D01*
X91138095Y-141051666D01*
X91090476Y-140956428D01*
X91042857Y-140908809D01*
X90947619Y-140861190D01*
X90757142Y-140813571D01*
X90661904Y-140765952D01*
X90614285Y-140718333D01*
X90566666Y-140623095D01*
X90566666Y-140527857D01*
X90614285Y-140432619D01*
X90661904Y-140385000D01*
X90757142Y-140337380D01*
X90995238Y-140337380D01*
X91138095Y-140385000D01*
X91471428Y-140337380D02*
X91709523Y-141337380D01*
X91900000Y-140623095D01*
X92090476Y-141337380D01*
X92328571Y-140337380D01*
X93185714Y-140337380D02*
X92709523Y-140337380D01*
X92661904Y-140813571D01*
X92709523Y-140765952D01*
X92804761Y-140718333D01*
X93042857Y-140718333D01*
X93138095Y-140765952D01*
X93185714Y-140813571D01*
X93233333Y-140908809D01*
X93233333Y-141146904D01*
X93185714Y-141242142D01*
X93138095Y-141289761D01*
X93042857Y-141337380D01*
X92804761Y-141337380D01*
X92709523Y-141289761D01*
X92661904Y-141242142D01*
%TO.C,D7*%
X109576904Y-67677380D02*
X109576904Y-66677380D01*
X109815000Y-66677380D01*
X109957857Y-66725000D01*
X110053095Y-66820238D01*
X110100714Y-66915476D01*
X110148333Y-67105952D01*
X110148333Y-67248809D01*
X110100714Y-67439285D01*
X110053095Y-67534523D01*
X109957857Y-67629761D01*
X109815000Y-67677380D01*
X109576904Y-67677380D01*
X110481666Y-66677380D02*
X111148333Y-66677380D01*
X110719761Y-67677380D01*
%TO.C,D21*%
X166250714Y-67677380D02*
X166250714Y-66677380D01*
X166488809Y-66677380D01*
X166631666Y-66725000D01*
X166726904Y-66820238D01*
X166774523Y-66915476D01*
X166822142Y-67105952D01*
X166822142Y-67248809D01*
X166774523Y-67439285D01*
X166726904Y-67534523D01*
X166631666Y-67629761D01*
X166488809Y-67677380D01*
X166250714Y-67677380D01*
X167203095Y-66772619D02*
X167250714Y-66725000D01*
X167345952Y-66677380D01*
X167584047Y-66677380D01*
X167679285Y-66725000D01*
X167726904Y-66772619D01*
X167774523Y-66867857D01*
X167774523Y-66963095D01*
X167726904Y-67105952D01*
X167155476Y-67677380D01*
X167774523Y-67677380D01*
X168726904Y-67677380D02*
X168155476Y-67677380D01*
X168441190Y-67677380D02*
X168441190Y-66677380D01*
X168345952Y-66820238D01*
X168250714Y-66915476D01*
X168155476Y-66963095D01*
%TO.C,*%
%TO.C,SW16*%
X147240476Y-84139761D02*
X147383333Y-84187380D01*
X147621428Y-84187380D01*
X147716666Y-84139761D01*
X147764285Y-84092142D01*
X147811904Y-83996904D01*
X147811904Y-83901666D01*
X147764285Y-83806428D01*
X147716666Y-83758809D01*
X147621428Y-83711190D01*
X147430952Y-83663571D01*
X147335714Y-83615952D01*
X147288095Y-83568333D01*
X147240476Y-83473095D01*
X147240476Y-83377857D01*
X147288095Y-83282619D01*
X147335714Y-83235000D01*
X147430952Y-83187380D01*
X147669047Y-83187380D01*
X147811904Y-83235000D01*
X148145238Y-83187380D02*
X148383333Y-84187380D01*
X148573809Y-83473095D01*
X148764285Y-84187380D01*
X149002380Y-83187380D01*
X149907142Y-84187380D02*
X149335714Y-84187380D01*
X149621428Y-84187380D02*
X149621428Y-83187380D01*
X149526190Y-83330238D01*
X149430952Y-83425476D01*
X149335714Y-83473095D01*
X150764285Y-83187380D02*
X150573809Y-83187380D01*
X150478571Y-83235000D01*
X150430952Y-83282619D01*
X150335714Y-83425476D01*
X150288095Y-83615952D01*
X150288095Y-83996904D01*
X150335714Y-84092142D01*
X150383333Y-84139761D01*
X150478571Y-84187380D01*
X150669047Y-84187380D01*
X150764285Y-84139761D01*
X150811904Y-84092142D01*
X150859523Y-83996904D01*
X150859523Y-83758809D01*
X150811904Y-83663571D01*
X150764285Y-83615952D01*
X150669047Y-83568333D01*
X150478571Y-83568333D01*
X150383333Y-83615952D01*
X150335714Y-83663571D01*
X150288095Y-83758809D01*
%TO.C,SW13*%
X128190476Y-103189761D02*
X128333333Y-103237380D01*
X128571428Y-103237380D01*
X128666666Y-103189761D01*
X128714285Y-103142142D01*
X128761904Y-103046904D01*
X128761904Y-102951666D01*
X128714285Y-102856428D01*
X128666666Y-102808809D01*
X128571428Y-102761190D01*
X128380952Y-102713571D01*
X128285714Y-102665952D01*
X128238095Y-102618333D01*
X128190476Y-102523095D01*
X128190476Y-102427857D01*
X128238095Y-102332619D01*
X128285714Y-102285000D01*
X128380952Y-102237380D01*
X128619047Y-102237380D01*
X128761904Y-102285000D01*
X129095238Y-102237380D02*
X129333333Y-103237380D01*
X129523809Y-102523095D01*
X129714285Y-103237380D01*
X129952380Y-102237380D01*
X130857142Y-103237380D02*
X130285714Y-103237380D01*
X130571428Y-103237380D02*
X130571428Y-102237380D01*
X130476190Y-102380238D01*
X130380952Y-102475476D01*
X130285714Y-102523095D01*
X131190476Y-102237380D02*
X131809523Y-102237380D01*
X131476190Y-102618333D01*
X131619047Y-102618333D01*
X131714285Y-102665952D01*
X131761904Y-102713571D01*
X131809523Y-102808809D01*
X131809523Y-103046904D01*
X131761904Y-103142142D01*
X131714285Y-103189761D01*
X131619047Y-103237380D01*
X131333333Y-103237380D01*
X131238095Y-103189761D01*
X131190476Y-103142142D01*
%TO.C,D11*%
X128150714Y-64752380D02*
X128150714Y-63752380D01*
X128388809Y-63752380D01*
X128531666Y-63800000D01*
X128626904Y-63895238D01*
X128674523Y-63990476D01*
X128722142Y-64180952D01*
X128722142Y-64323809D01*
X128674523Y-64514285D01*
X128626904Y-64609523D01*
X128531666Y-64704761D01*
X128388809Y-64752380D01*
X128150714Y-64752380D01*
X129674523Y-64752380D02*
X129103095Y-64752380D01*
X129388809Y-64752380D02*
X129388809Y-63752380D01*
X129293571Y-63895238D01*
X129198333Y-63990476D01*
X129103095Y-64038095D01*
X130626904Y-64752380D02*
X130055476Y-64752380D01*
X130341190Y-64752380D02*
X130341190Y-63752380D01*
X130245952Y-63895238D01*
X130150714Y-63990476D01*
X130055476Y-64038095D01*
%TO.C,D17*%
X147200714Y-86727380D02*
X147200714Y-85727380D01*
X147438809Y-85727380D01*
X147581666Y-85775000D01*
X147676904Y-85870238D01*
X147724523Y-85965476D01*
X147772142Y-86155952D01*
X147772142Y-86298809D01*
X147724523Y-86489285D01*
X147676904Y-86584523D01*
X147581666Y-86679761D01*
X147438809Y-86727380D01*
X147200714Y-86727380D01*
X148724523Y-86727380D02*
X148153095Y-86727380D01*
X148438809Y-86727380D02*
X148438809Y-85727380D01*
X148343571Y-85870238D01*
X148248333Y-85965476D01*
X148153095Y-86013095D01*
X149057857Y-85727380D02*
X149724523Y-85727380D01*
X149295952Y-86727380D01*
%TO.C,SW4*%
X90566666Y-122239761D02*
X90709523Y-122287380D01*
X90947619Y-122287380D01*
X91042857Y-122239761D01*
X91090476Y-122192142D01*
X91138095Y-122096904D01*
X91138095Y-122001666D01*
X91090476Y-121906428D01*
X91042857Y-121858809D01*
X90947619Y-121811190D01*
X90757142Y-121763571D01*
X90661904Y-121715952D01*
X90614285Y-121668333D01*
X90566666Y-121573095D01*
X90566666Y-121477857D01*
X90614285Y-121382619D01*
X90661904Y-121335000D01*
X90757142Y-121287380D01*
X90995238Y-121287380D01*
X91138095Y-121335000D01*
X91471428Y-121287380D02*
X91709523Y-122287380D01*
X91900000Y-121573095D01*
X92090476Y-122287380D01*
X92328571Y-121287380D01*
X93138095Y-121620714D02*
X93138095Y-122287380D01*
X92900000Y-121239761D02*
X92661904Y-121954047D01*
X93280952Y-121954047D01*
%TO.C,SW6*%
X109616666Y-65089761D02*
X109759523Y-65137380D01*
X109997619Y-65137380D01*
X110092857Y-65089761D01*
X110140476Y-65042142D01*
X110188095Y-64946904D01*
X110188095Y-64851666D01*
X110140476Y-64756428D01*
X110092857Y-64708809D01*
X109997619Y-64661190D01*
X109807142Y-64613571D01*
X109711904Y-64565952D01*
X109664285Y-64518333D01*
X109616666Y-64423095D01*
X109616666Y-64327857D01*
X109664285Y-64232619D01*
X109711904Y-64185000D01*
X109807142Y-64137380D01*
X110045238Y-64137380D01*
X110188095Y-64185000D01*
X110521428Y-64137380D02*
X110759523Y-65137380D01*
X110950000Y-64423095D01*
X111140476Y-65137380D01*
X111378571Y-64137380D01*
X112188095Y-64137380D02*
X111997619Y-64137380D01*
X111902380Y-64185000D01*
X111854761Y-64232619D01*
X111759523Y-64375476D01*
X111711904Y-64565952D01*
X111711904Y-64946904D01*
X111759523Y-65042142D01*
X111807142Y-65089761D01*
X111902380Y-65137380D01*
X112092857Y-65137380D01*
X112188095Y-65089761D01*
X112235714Y-65042142D01*
X112283333Y-64946904D01*
X112283333Y-64708809D01*
X112235714Y-64613571D01*
X112188095Y-64565952D01*
X112092857Y-64518333D01*
X111902380Y-64518333D01*
X111807142Y-64565952D01*
X111759523Y-64613571D01*
X111711904Y-64708809D01*
%TO.C,SW9*%
X109616666Y-122239761D02*
X109759523Y-122287380D01*
X109997619Y-122287380D01*
X110092857Y-122239761D01*
X110140476Y-122192142D01*
X110188095Y-122096904D01*
X110188095Y-122001666D01*
X110140476Y-121906428D01*
X110092857Y-121858809D01*
X109997619Y-121811190D01*
X109807142Y-121763571D01*
X109711904Y-121715952D01*
X109664285Y-121668333D01*
X109616666Y-121573095D01*
X109616666Y-121477857D01*
X109664285Y-121382619D01*
X109711904Y-121335000D01*
X109807142Y-121287380D01*
X110045238Y-121287380D01*
X110188095Y-121335000D01*
X110521428Y-121287380D02*
X110759523Y-122287380D01*
X110950000Y-121573095D01*
X111140476Y-122287380D01*
X111378571Y-121287380D01*
X111807142Y-122287380D02*
X111997619Y-122287380D01*
X112092857Y-122239761D01*
X112140476Y-122192142D01*
X112235714Y-122049285D01*
X112283333Y-121858809D01*
X112283333Y-121477857D01*
X112235714Y-121382619D01*
X112188095Y-121335000D01*
X112092857Y-121287380D01*
X111902380Y-121287380D01*
X111807142Y-121335000D01*
X111759523Y-121382619D01*
X111711904Y-121477857D01*
X111711904Y-121715952D01*
X111759523Y-121811190D01*
X111807142Y-121858809D01*
X111902380Y-121906428D01*
X112092857Y-121906428D01*
X112188095Y-121858809D01*
X112235714Y-121811190D01*
X112283333Y-121715952D01*
%TO.C,SW21*%
X166290476Y-84139761D02*
X166433333Y-84187380D01*
X166671428Y-84187380D01*
X166766666Y-84139761D01*
X166814285Y-84092142D01*
X166861904Y-83996904D01*
X166861904Y-83901666D01*
X166814285Y-83806428D01*
X166766666Y-83758809D01*
X166671428Y-83711190D01*
X166480952Y-83663571D01*
X166385714Y-83615952D01*
X166338095Y-83568333D01*
X166290476Y-83473095D01*
X166290476Y-83377857D01*
X166338095Y-83282619D01*
X166385714Y-83235000D01*
X166480952Y-83187380D01*
X166719047Y-83187380D01*
X166861904Y-83235000D01*
X167195238Y-83187380D02*
X167433333Y-84187380D01*
X167623809Y-83473095D01*
X167814285Y-84187380D01*
X168052380Y-83187380D01*
X168385714Y-83282619D02*
X168433333Y-83235000D01*
X168528571Y-83187380D01*
X168766666Y-83187380D01*
X168861904Y-83235000D01*
X168909523Y-83282619D01*
X168957142Y-83377857D01*
X168957142Y-83473095D01*
X168909523Y-83615952D01*
X168338095Y-84187380D01*
X168957142Y-84187380D01*
X169909523Y-84187380D02*
X169338095Y-84187380D01*
X169623809Y-84187380D02*
X169623809Y-83187380D01*
X169528571Y-83330238D01*
X169433333Y-83425476D01*
X169338095Y-83473095D01*
%TO.C,D2*%
X90526904Y-67677380D02*
X90526904Y-66677380D01*
X90765000Y-66677380D01*
X90907857Y-66725000D01*
X91003095Y-66820238D01*
X91050714Y-66915476D01*
X91098333Y-67105952D01*
X91098333Y-67248809D01*
X91050714Y-67439285D01*
X91003095Y-67534523D01*
X90907857Y-67629761D01*
X90765000Y-67677380D01*
X90526904Y-67677380D01*
X91479285Y-66772619D02*
X91526904Y-66725000D01*
X91622142Y-66677380D01*
X91860238Y-66677380D01*
X91955476Y-66725000D01*
X92003095Y-66772619D01*
X92050714Y-66867857D01*
X92050714Y-66963095D01*
X92003095Y-67105952D01*
X91431666Y-67677380D01*
X92050714Y-67677380D01*
%TO.C,SW20*%
X166290476Y-65089761D02*
X166433333Y-65137380D01*
X166671428Y-65137380D01*
X166766666Y-65089761D01*
X166814285Y-65042142D01*
X166861904Y-64946904D01*
X166861904Y-64851666D01*
X166814285Y-64756428D01*
X166766666Y-64708809D01*
X166671428Y-64661190D01*
X166480952Y-64613571D01*
X166385714Y-64565952D01*
X166338095Y-64518333D01*
X166290476Y-64423095D01*
X166290476Y-64327857D01*
X166338095Y-64232619D01*
X166385714Y-64185000D01*
X166480952Y-64137380D01*
X166719047Y-64137380D01*
X166861904Y-64185000D01*
X167195238Y-64137380D02*
X167433333Y-65137380D01*
X167623809Y-64423095D01*
X167814285Y-65137380D01*
X168052380Y-64137380D01*
X168385714Y-64232619D02*
X168433333Y-64185000D01*
X168528571Y-64137380D01*
X168766666Y-64137380D01*
X168861904Y-64185000D01*
X168909523Y-64232619D01*
X168957142Y-64327857D01*
X168957142Y-64423095D01*
X168909523Y-64565952D01*
X168338095Y-65137380D01*
X168957142Y-65137380D01*
X169576190Y-64137380D02*
X169671428Y-64137380D01*
X169766666Y-64185000D01*
X169814285Y-64232619D01*
X169861904Y-64327857D01*
X169909523Y-64518333D01*
X169909523Y-64756428D01*
X169861904Y-64946904D01*
X169814285Y-65042142D01*
X169766666Y-65089761D01*
X169671428Y-65137380D01*
X169576190Y-65137380D01*
X169480952Y-65089761D01*
X169433333Y-65042142D01*
X169385714Y-64946904D01*
X169338095Y-64756428D01*
X169338095Y-64518333D01*
X169385714Y-64327857D01*
X169433333Y-64232619D01*
X169480952Y-64185000D01*
X169576190Y-64137380D01*
%TO.C,*%
%TO.C,D12*%
X128150714Y-67889380D02*
X128150714Y-66889380D01*
X128388809Y-66889380D01*
X128531666Y-66937000D01*
X128626904Y-67032238D01*
X128674523Y-67127476D01*
X128722142Y-67317952D01*
X128722142Y-67460809D01*
X128674523Y-67651285D01*
X128626904Y-67746523D01*
X128531666Y-67841761D01*
X128388809Y-67889380D01*
X128150714Y-67889380D01*
X129674523Y-67889380D02*
X129103095Y-67889380D01*
X129388809Y-67889380D02*
X129388809Y-66889380D01*
X129293571Y-67032238D01*
X129198333Y-67127476D01*
X129103095Y-67175095D01*
X130055476Y-66984619D02*
X130103095Y-66937000D01*
X130198333Y-66889380D01*
X130436428Y-66889380D01*
X130531666Y-66937000D01*
X130579285Y-66984619D01*
X130626904Y-67079857D01*
X130626904Y-67175095D01*
X130579285Y-67317952D01*
X130007857Y-67889380D01*
X130626904Y-67889380D01*
%TO.C,D9*%
X109576904Y-105777380D02*
X109576904Y-104777380D01*
X109815000Y-104777380D01*
X109957857Y-104825000D01*
X110053095Y-104920238D01*
X110100714Y-105015476D01*
X110148333Y-105205952D01*
X110148333Y-105348809D01*
X110100714Y-105539285D01*
X110053095Y-105634523D01*
X109957857Y-105729761D01*
X109815000Y-105777380D01*
X109576904Y-105777380D01*
X110624523Y-105777380D02*
X110815000Y-105777380D01*
X110910238Y-105729761D01*
X110957857Y-105682142D01*
X111053095Y-105539285D01*
X111100714Y-105348809D01*
X111100714Y-104967857D01*
X111053095Y-104872619D01*
X111005476Y-104825000D01*
X110910238Y-104777380D01*
X110719761Y-104777380D01*
X110624523Y-104825000D01*
X110576904Y-104872619D01*
X110529285Y-104967857D01*
X110529285Y-105205952D01*
X110576904Y-105301190D01*
X110624523Y-105348809D01*
X110719761Y-105396428D01*
X110910238Y-105396428D01*
X111005476Y-105348809D01*
X111053095Y-105301190D01*
X111100714Y-105205952D01*
%TO.C,SW17*%
X147240476Y-103189761D02*
X147383333Y-103237380D01*
X147621428Y-103237380D01*
X147716666Y-103189761D01*
X147764285Y-103142142D01*
X147811904Y-103046904D01*
X147811904Y-102951666D01*
X147764285Y-102856428D01*
X147716666Y-102808809D01*
X147621428Y-102761190D01*
X147430952Y-102713571D01*
X147335714Y-102665952D01*
X147288095Y-102618333D01*
X147240476Y-102523095D01*
X147240476Y-102427857D01*
X147288095Y-102332619D01*
X147335714Y-102285000D01*
X147430952Y-102237380D01*
X147669047Y-102237380D01*
X147811904Y-102285000D01*
X148145238Y-102237380D02*
X148383333Y-103237380D01*
X148573809Y-102523095D01*
X148764285Y-103237380D01*
X149002380Y-102237380D01*
X149907142Y-103237380D02*
X149335714Y-103237380D01*
X149621428Y-103237380D02*
X149621428Y-102237380D01*
X149526190Y-102380238D01*
X149430952Y-102475476D01*
X149335714Y-102523095D01*
X150240476Y-102237380D02*
X150907142Y-102237380D01*
X150478571Y-103237380D01*
%TO.C,SW23*%
X166290476Y-131764761D02*
X166433333Y-131812380D01*
X166671428Y-131812380D01*
X166766666Y-131764761D01*
X166814285Y-131717142D01*
X166861904Y-131621904D01*
X166861904Y-131526666D01*
X166814285Y-131431428D01*
X166766666Y-131383809D01*
X166671428Y-131336190D01*
X166480952Y-131288571D01*
X166385714Y-131240952D01*
X166338095Y-131193333D01*
X166290476Y-131098095D01*
X166290476Y-131002857D01*
X166338095Y-130907619D01*
X166385714Y-130860000D01*
X166480952Y-130812380D01*
X166719047Y-130812380D01*
X166861904Y-130860000D01*
X167195238Y-130812380D02*
X167433333Y-131812380D01*
X167623809Y-131098095D01*
X167814285Y-131812380D01*
X168052380Y-130812380D01*
X168385714Y-130907619D02*
X168433333Y-130860000D01*
X168528571Y-130812380D01*
X168766666Y-130812380D01*
X168861904Y-130860000D01*
X168909523Y-130907619D01*
X168957142Y-131002857D01*
X168957142Y-131098095D01*
X168909523Y-131240952D01*
X168338095Y-131812380D01*
X168957142Y-131812380D01*
X169290476Y-130812380D02*
X169909523Y-130812380D01*
X169576190Y-131193333D01*
X169719047Y-131193333D01*
X169814285Y-131240952D01*
X169861904Y-131288571D01*
X169909523Y-131383809D01*
X169909523Y-131621904D01*
X169861904Y-131717142D01*
X169814285Y-131764761D01*
X169719047Y-131812380D01*
X169433333Y-131812380D01*
X169338095Y-131764761D01*
X169290476Y-131717142D01*
%TO.C,SW8*%
X109616666Y-103189761D02*
X109759523Y-103237380D01*
X109997619Y-103237380D01*
X110092857Y-103189761D01*
X110140476Y-103142142D01*
X110188095Y-103046904D01*
X110188095Y-102951666D01*
X110140476Y-102856428D01*
X110092857Y-102808809D01*
X109997619Y-102761190D01*
X109807142Y-102713571D01*
X109711904Y-102665952D01*
X109664285Y-102618333D01*
X109616666Y-102523095D01*
X109616666Y-102427857D01*
X109664285Y-102332619D01*
X109711904Y-102285000D01*
X109807142Y-102237380D01*
X110045238Y-102237380D01*
X110188095Y-102285000D01*
X110521428Y-102237380D02*
X110759523Y-103237380D01*
X110950000Y-102523095D01*
X111140476Y-103237380D01*
X111378571Y-102237380D01*
X111902380Y-102665952D02*
X111807142Y-102618333D01*
X111759523Y-102570714D01*
X111711904Y-102475476D01*
X111711904Y-102427857D01*
X111759523Y-102332619D01*
X111807142Y-102285000D01*
X111902380Y-102237380D01*
X112092857Y-102237380D01*
X112188095Y-102285000D01*
X112235714Y-102332619D01*
X112283333Y-102427857D01*
X112283333Y-102475476D01*
X112235714Y-102570714D01*
X112188095Y-102618333D01*
X112092857Y-102665952D01*
X111902380Y-102665952D01*
X111807142Y-102713571D01*
X111759523Y-102761190D01*
X111711904Y-102856428D01*
X111711904Y-103046904D01*
X111759523Y-103142142D01*
X111807142Y-103189761D01*
X111902380Y-103237380D01*
X112092857Y-103237380D01*
X112188095Y-103189761D01*
X112235714Y-103142142D01*
X112283333Y-103046904D01*
X112283333Y-102856428D01*
X112235714Y-102761190D01*
X112188095Y-102713571D01*
X112092857Y-102665952D01*
%TO.C,D18*%
X147200714Y-105777380D02*
X147200714Y-104777380D01*
X147438809Y-104777380D01*
X147581666Y-104825000D01*
X147676904Y-104920238D01*
X147724523Y-105015476D01*
X147772142Y-105205952D01*
X147772142Y-105348809D01*
X147724523Y-105539285D01*
X147676904Y-105634523D01*
X147581666Y-105729761D01*
X147438809Y-105777380D01*
X147200714Y-105777380D01*
X148724523Y-105777380D02*
X148153095Y-105777380D01*
X148438809Y-105777380D02*
X148438809Y-104777380D01*
X148343571Y-104920238D01*
X148248333Y-105015476D01*
X148153095Y-105063095D01*
X149295952Y-105205952D02*
X149200714Y-105158333D01*
X149153095Y-105110714D01*
X149105476Y-105015476D01*
X149105476Y-104967857D01*
X149153095Y-104872619D01*
X149200714Y-104825000D01*
X149295952Y-104777380D01*
X149486428Y-104777380D01*
X149581666Y-104825000D01*
X149629285Y-104872619D01*
X149676904Y-104967857D01*
X149676904Y-105015476D01*
X149629285Y-105110714D01*
X149581666Y-105158333D01*
X149486428Y-105205952D01*
X149295952Y-105205952D01*
X149200714Y-105253571D01*
X149153095Y-105301190D01*
X149105476Y-105396428D01*
X149105476Y-105586904D01*
X149153095Y-105682142D01*
X149200714Y-105729761D01*
X149295952Y-105777380D01*
X149486428Y-105777380D01*
X149581666Y-105729761D01*
X149629285Y-105682142D01*
X149676904Y-105586904D01*
X149676904Y-105396428D01*
X149629285Y-105301190D01*
X149581666Y-105253571D01*
X149486428Y-105205952D01*
%TO.C,SW14*%
X128190476Y-122239761D02*
X128333333Y-122287380D01*
X128571428Y-122287380D01*
X128666666Y-122239761D01*
X128714285Y-122192142D01*
X128761904Y-122096904D01*
X128761904Y-122001666D01*
X128714285Y-121906428D01*
X128666666Y-121858809D01*
X128571428Y-121811190D01*
X128380952Y-121763571D01*
X128285714Y-121715952D01*
X128238095Y-121668333D01*
X128190476Y-121573095D01*
X128190476Y-121477857D01*
X128238095Y-121382619D01*
X128285714Y-121335000D01*
X128380952Y-121287380D01*
X128619047Y-121287380D01*
X128761904Y-121335000D01*
X129095238Y-121287380D02*
X129333333Y-122287380D01*
X129523809Y-121573095D01*
X129714285Y-122287380D01*
X129952380Y-121287380D01*
X130857142Y-122287380D02*
X130285714Y-122287380D01*
X130571428Y-122287380D02*
X130571428Y-121287380D01*
X130476190Y-121430238D01*
X130380952Y-121525476D01*
X130285714Y-121573095D01*
X131714285Y-121620714D02*
X131714285Y-122287380D01*
X131476190Y-121239761D02*
X131238095Y-121954047D01*
X131857142Y-121954047D01*
%TO.C,SW10*%
X118665476Y-141289761D02*
X118808333Y-141337380D01*
X119046428Y-141337380D01*
X119141666Y-141289761D01*
X119189285Y-141242142D01*
X119236904Y-141146904D01*
X119236904Y-141051666D01*
X119189285Y-140956428D01*
X119141666Y-140908809D01*
X119046428Y-140861190D01*
X118855952Y-140813571D01*
X118760714Y-140765952D01*
X118713095Y-140718333D01*
X118665476Y-140623095D01*
X118665476Y-140527857D01*
X118713095Y-140432619D01*
X118760714Y-140385000D01*
X118855952Y-140337380D01*
X119094047Y-140337380D01*
X119236904Y-140385000D01*
X119570238Y-140337380D02*
X119808333Y-141337380D01*
X119998809Y-140623095D01*
X120189285Y-141337380D01*
X120427380Y-140337380D01*
X121332142Y-141337380D02*
X120760714Y-141337380D01*
X121046428Y-141337380D02*
X121046428Y-140337380D01*
X120951190Y-140480238D01*
X120855952Y-140575476D01*
X120760714Y-140623095D01*
X121951190Y-140337380D02*
X122046428Y-140337380D01*
X122141666Y-140385000D01*
X122189285Y-140432619D01*
X122236904Y-140527857D01*
X122284523Y-140718333D01*
X122284523Y-140956428D01*
X122236904Y-141146904D01*
X122189285Y-141242142D01*
X122141666Y-141289761D01*
X122046428Y-141337380D01*
X121951190Y-141337380D01*
X121855952Y-141289761D01*
X121808333Y-141242142D01*
X121760714Y-141146904D01*
X121713095Y-140956428D01*
X121713095Y-140718333D01*
X121760714Y-140527857D01*
X121808333Y-140432619D01*
X121855952Y-140385000D01*
X121951190Y-140337380D01*
%TO.C,D3*%
X90526904Y-86727380D02*
X90526904Y-85727380D01*
X90765000Y-85727380D01*
X90907857Y-85775000D01*
X91003095Y-85870238D01*
X91050714Y-85965476D01*
X91098333Y-86155952D01*
X91098333Y-86298809D01*
X91050714Y-86489285D01*
X91003095Y-86584523D01*
X90907857Y-86679761D01*
X90765000Y-86727380D01*
X90526904Y-86727380D01*
X91431666Y-85727380D02*
X92050714Y-85727380D01*
X91717380Y-86108333D01*
X91860238Y-86108333D01*
X91955476Y-86155952D01*
X92003095Y-86203571D01*
X92050714Y-86298809D01*
X92050714Y-86536904D01*
X92003095Y-86632142D01*
X91955476Y-86679761D01*
X91860238Y-86727380D01*
X91574523Y-86727380D01*
X91479285Y-86679761D01*
X91431666Y-86632142D01*
%TO.C,D6*%
X109576904Y-48627380D02*
X109576904Y-47627380D01*
X109815000Y-47627380D01*
X109957857Y-47675000D01*
X110053095Y-47770238D01*
X110100714Y-47865476D01*
X110148333Y-48055952D01*
X110148333Y-48198809D01*
X110100714Y-48389285D01*
X110053095Y-48484523D01*
X109957857Y-48579761D01*
X109815000Y-48627380D01*
X109576904Y-48627380D01*
X111005476Y-47627380D02*
X110815000Y-47627380D01*
X110719761Y-47675000D01*
X110672142Y-47722619D01*
X110576904Y-47865476D01*
X110529285Y-48055952D01*
X110529285Y-48436904D01*
X110576904Y-48532142D01*
X110624523Y-48579761D01*
X110719761Y-48627380D01*
X110910238Y-48627380D01*
X111005476Y-48579761D01*
X111053095Y-48532142D01*
X111100714Y-48436904D01*
X111100714Y-48198809D01*
X111053095Y-48103571D01*
X111005476Y-48055952D01*
X110910238Y-48008333D01*
X110719761Y-48008333D01*
X110624523Y-48055952D01*
X110576904Y-48103571D01*
X110529285Y-48198809D01*
%TO.C,SW11*%
X128190476Y-49404761D02*
X128333333Y-49452380D01*
X128571428Y-49452380D01*
X128666666Y-49404761D01*
X128714285Y-49357142D01*
X128761904Y-49261904D01*
X128761904Y-49166666D01*
X128714285Y-49071428D01*
X128666666Y-49023809D01*
X128571428Y-48976190D01*
X128380952Y-48928571D01*
X128285714Y-48880952D01*
X128238095Y-48833333D01*
X128190476Y-48738095D01*
X128190476Y-48642857D01*
X128238095Y-48547619D01*
X128285714Y-48500000D01*
X128380952Y-48452380D01*
X128619047Y-48452380D01*
X128761904Y-48500000D01*
X129095238Y-48452380D02*
X129333333Y-49452380D01*
X129523809Y-48738095D01*
X129714285Y-49452380D01*
X129952380Y-48452380D01*
X130857142Y-49452380D02*
X130285714Y-49452380D01*
X130571428Y-49452380D02*
X130571428Y-48452380D01*
X130476190Y-48595238D01*
X130380952Y-48690476D01*
X130285714Y-48738095D01*
X131809523Y-49452380D02*
X131238095Y-49452380D01*
X131523809Y-49452380D02*
X131523809Y-48452380D01*
X131428571Y-48595238D01*
X131333333Y-48690476D01*
X131238095Y-48738095D01*
%TO.C,D14*%
X128150714Y-105777380D02*
X128150714Y-104777380D01*
X128388809Y-104777380D01*
X128531666Y-104825000D01*
X128626904Y-104920238D01*
X128674523Y-105015476D01*
X128722142Y-105205952D01*
X128722142Y-105348809D01*
X128674523Y-105539285D01*
X128626904Y-105634523D01*
X128531666Y-105729761D01*
X128388809Y-105777380D01*
X128150714Y-105777380D01*
X129674523Y-105777380D02*
X129103095Y-105777380D01*
X129388809Y-105777380D02*
X129388809Y-104777380D01*
X129293571Y-104920238D01*
X129198333Y-105015476D01*
X129103095Y-105063095D01*
X130531666Y-105110714D02*
X130531666Y-105777380D01*
X130293571Y-104729761D02*
X130055476Y-105444047D01*
X130674523Y-105444047D01*
%TO.C,SW1*%
X90566666Y-65089761D02*
X90709523Y-65137380D01*
X90947619Y-65137380D01*
X91042857Y-65089761D01*
X91090476Y-65042142D01*
X91138095Y-64946904D01*
X91138095Y-64851666D01*
X91090476Y-64756428D01*
X91042857Y-64708809D01*
X90947619Y-64661190D01*
X90757142Y-64613571D01*
X90661904Y-64565952D01*
X90614285Y-64518333D01*
X90566666Y-64423095D01*
X90566666Y-64327857D01*
X90614285Y-64232619D01*
X90661904Y-64185000D01*
X90757142Y-64137380D01*
X90995238Y-64137380D01*
X91138095Y-64185000D01*
X91471428Y-64137380D02*
X91709523Y-65137380D01*
X91900000Y-64423095D01*
X92090476Y-65137380D01*
X92328571Y-64137380D01*
X93233333Y-65137380D02*
X92661904Y-65137380D01*
X92947619Y-65137380D02*
X92947619Y-64137380D01*
X92852380Y-64280238D01*
X92757142Y-64375476D01*
X92661904Y-64423095D01*
%TO.C,SW2*%
X90566666Y-84139761D02*
X90709523Y-84187380D01*
X90947619Y-84187380D01*
X91042857Y-84139761D01*
X91090476Y-84092142D01*
X91138095Y-83996904D01*
X91138095Y-83901666D01*
X91090476Y-83806428D01*
X91042857Y-83758809D01*
X90947619Y-83711190D01*
X90757142Y-83663571D01*
X90661904Y-83615952D01*
X90614285Y-83568333D01*
X90566666Y-83473095D01*
X90566666Y-83377857D01*
X90614285Y-83282619D01*
X90661904Y-83235000D01*
X90757142Y-83187380D01*
X90995238Y-83187380D01*
X91138095Y-83235000D01*
X91471428Y-83187380D02*
X91709523Y-84187380D01*
X91900000Y-83473095D01*
X92090476Y-84187380D01*
X92328571Y-83187380D01*
X92661904Y-83282619D02*
X92709523Y-83235000D01*
X92804761Y-83187380D01*
X93042857Y-83187380D01*
X93138095Y-83235000D01*
X93185714Y-83282619D01*
X93233333Y-83377857D01*
X93233333Y-83473095D01*
X93185714Y-83615952D01*
X92614285Y-84187380D01*
X93233333Y-84187380D01*
%TO.C,D15*%
X147200714Y-48627380D02*
X147200714Y-47627380D01*
X147438809Y-47627380D01*
X147581666Y-47675000D01*
X147676904Y-47770238D01*
X147724523Y-47865476D01*
X147772142Y-48055952D01*
X147772142Y-48198809D01*
X147724523Y-48389285D01*
X147676904Y-48484523D01*
X147581666Y-48579761D01*
X147438809Y-48627380D01*
X147200714Y-48627380D01*
X148724523Y-48627380D02*
X148153095Y-48627380D01*
X148438809Y-48627380D02*
X148438809Y-47627380D01*
X148343571Y-47770238D01*
X148248333Y-47865476D01*
X148153095Y-47913095D01*
X149629285Y-47627380D02*
X149153095Y-47627380D01*
X149105476Y-48103571D01*
X149153095Y-48055952D01*
X149248333Y-48008333D01*
X149486428Y-48008333D01*
X149581666Y-48055952D01*
X149629285Y-48103571D01*
X149676904Y-48198809D01*
X149676904Y-48436904D01*
X149629285Y-48532142D01*
X149581666Y-48579761D01*
X149486428Y-48627380D01*
X149248333Y-48627380D01*
X149153095Y-48579761D01*
X149105476Y-48532142D01*
%TO.C,D19*%
X147200714Y-124827380D02*
X147200714Y-123827380D01*
X147438809Y-123827380D01*
X147581666Y-123875000D01*
X147676904Y-123970238D01*
X147724523Y-124065476D01*
X147772142Y-124255952D01*
X147772142Y-124398809D01*
X147724523Y-124589285D01*
X147676904Y-124684523D01*
X147581666Y-124779761D01*
X147438809Y-124827380D01*
X147200714Y-124827380D01*
X148724523Y-124827380D02*
X148153095Y-124827380D01*
X148438809Y-124827380D02*
X148438809Y-123827380D01*
X148343571Y-123970238D01*
X148248333Y-124065476D01*
X148153095Y-124113095D01*
X149200714Y-124827380D02*
X149391190Y-124827380D01*
X149486428Y-124779761D01*
X149534047Y-124732142D01*
X149629285Y-124589285D01*
X149676904Y-124398809D01*
X149676904Y-124017857D01*
X149629285Y-123922619D01*
X149581666Y-123875000D01*
X149486428Y-123827380D01*
X149295952Y-123827380D01*
X149200714Y-123875000D01*
X149153095Y-123922619D01*
X149105476Y-124017857D01*
X149105476Y-124255952D01*
X149153095Y-124351190D01*
X149200714Y-124398809D01*
X149295952Y-124446428D01*
X149486428Y-124446428D01*
X149581666Y-124398809D01*
X149629285Y-124351190D01*
X149676904Y-124255952D01*
D11*
%TO.C,D23*%
X169500000Y-115970000D02*
X169500000Y-113730000D01*
X170220000Y-113730000D02*
X165980000Y-113730000D01*
X169380000Y-115970000D02*
X169380000Y-113730000D01*
X165980000Y-113730000D02*
X165980000Y-115970000D01*
X165330000Y-114850000D02*
X165980000Y-114850000D01*
X170870000Y-114850000D02*
X170220000Y-114850000D01*
X170220000Y-115970000D02*
X170220000Y-113730000D01*
X169620000Y-115970000D02*
X169620000Y-113730000D01*
X165980000Y-115970000D02*
X170220000Y-115970000D01*
%TO.C,SW22*%
X175085000Y-101515000D02*
X161115000Y-101515000D01*
X161115000Y-87545000D02*
X175085000Y-87545000D01*
X161115000Y-101515000D02*
X161115000Y-87545000D01*
X175085000Y-87545000D02*
X175085000Y-101515000D01*
%TO.C,SW3*%
X84915000Y-101515000D02*
X84915000Y-87545000D01*
X98885000Y-101515000D02*
X84915000Y-101515000D01*
X84915000Y-87545000D02*
X98885000Y-87545000D01*
X98885000Y-87545000D02*
X98885000Y-101515000D01*
%TO.C,D1*%
X93180000Y-49295000D02*
X93180000Y-47055000D01*
X93420000Y-49295000D02*
X93420000Y-47055000D01*
X93300000Y-49295000D02*
X93300000Y-47055000D01*
X94020000Y-47055000D02*
X89780000Y-47055000D01*
X89130000Y-48175000D02*
X89780000Y-48175000D01*
X94670000Y-48175000D02*
X94020000Y-48175000D01*
X89780000Y-47055000D02*
X89780000Y-49295000D01*
X94020000Y-49295000D02*
X94020000Y-47055000D01*
X89780000Y-49295000D02*
X94020000Y-49295000D01*
%TO.C,D8*%
X108180000Y-86275000D02*
X108830000Y-86275000D01*
X108830000Y-87395000D02*
X113070000Y-87395000D01*
X113070000Y-87395000D02*
X113070000Y-85155000D01*
X108830000Y-85155000D02*
X108830000Y-87395000D01*
X112470000Y-87395000D02*
X112470000Y-85155000D01*
X113720000Y-86275000D02*
X113070000Y-86275000D01*
X112230000Y-87395000D02*
X112230000Y-85155000D01*
X113070000Y-85155000D02*
X108830000Y-85155000D01*
X112350000Y-87395000D02*
X112350000Y-85155000D01*
%TO.C,D4*%
X93300000Y-106445000D02*
X93300000Y-104205000D01*
X94670000Y-105325000D02*
X94020000Y-105325000D01*
X93420000Y-106445000D02*
X93420000Y-104205000D01*
X89780000Y-106445000D02*
X94020000Y-106445000D01*
X94020000Y-104205000D02*
X89780000Y-104205000D01*
X89130000Y-105325000D02*
X89780000Y-105325000D01*
X93180000Y-106445000D02*
X93180000Y-104205000D01*
X89780000Y-104205000D02*
X89780000Y-106445000D01*
X94020000Y-106445000D02*
X94020000Y-104205000D01*
%TO.C,D22*%
X165330000Y-86275000D02*
X165980000Y-86275000D01*
X169380000Y-87395000D02*
X169380000Y-85155000D01*
X170220000Y-87395000D02*
X170220000Y-85155000D01*
X170870000Y-86275000D02*
X170220000Y-86275000D01*
X170220000Y-85155000D02*
X165980000Y-85155000D01*
X165980000Y-85155000D02*
X165980000Y-87395000D01*
X169500000Y-87395000D02*
X169500000Y-85155000D01*
X169620000Y-87395000D02*
X169620000Y-85155000D01*
X165980000Y-87395000D02*
X170220000Y-87395000D01*
%TO.C,SW19*%
X142065000Y-125645000D02*
X156035000Y-125645000D01*
X142065000Y-139615000D02*
X142065000Y-125645000D01*
X156035000Y-139615000D02*
X142065000Y-139615000D01*
X156035000Y-125645000D02*
X156035000Y-139615000D01*
%TO.C,D10*%
X122595000Y-123255000D02*
X118355000Y-123255000D01*
X117705000Y-124375000D02*
X118355000Y-124375000D01*
X118355000Y-123255000D02*
X118355000Y-125495000D01*
X122595000Y-125495000D02*
X122595000Y-123255000D01*
X118355000Y-125495000D02*
X122595000Y-125495000D01*
X123245000Y-124375000D02*
X122595000Y-124375000D01*
X121995000Y-125495000D02*
X121995000Y-123255000D01*
X121875000Y-125495000D02*
X121875000Y-123255000D01*
X121755000Y-125495000D02*
X121755000Y-123255000D01*
%TO.C,D20*%
X170220000Y-49295000D02*
X170220000Y-47055000D01*
X170870000Y-48175000D02*
X170220000Y-48175000D01*
X165980000Y-49295000D02*
X170220000Y-49295000D01*
X169620000Y-49295000D02*
X169620000Y-47055000D01*
X165980000Y-47055000D02*
X165980000Y-49295000D01*
X169500000Y-49295000D02*
X169500000Y-47055000D01*
X165330000Y-48175000D02*
X165980000Y-48175000D01*
X169380000Y-49295000D02*
X169380000Y-47055000D01*
X170220000Y-47055000D02*
X165980000Y-47055000D01*
%TO.C,D5*%
X89780000Y-125495000D02*
X94020000Y-125495000D01*
X93300000Y-125495000D02*
X93300000Y-123255000D01*
X89130000Y-124375000D02*
X89780000Y-124375000D01*
X94020000Y-125495000D02*
X94020000Y-123255000D01*
X94670000Y-124375000D02*
X94020000Y-124375000D01*
X89780000Y-123255000D02*
X89780000Y-125495000D01*
X93180000Y-125495000D02*
X93180000Y-123255000D01*
X93420000Y-125495000D02*
X93420000Y-123255000D01*
X94020000Y-123255000D02*
X89780000Y-123255000D01*
%TO.C,D13*%
X127880000Y-85155000D02*
X127880000Y-87395000D01*
X131400000Y-87395000D02*
X131400000Y-85155000D01*
X131520000Y-87395000D02*
X131520000Y-85155000D01*
X132120000Y-87395000D02*
X132120000Y-85155000D01*
X127880000Y-87395000D02*
X132120000Y-87395000D01*
X132770000Y-86275000D02*
X132120000Y-86275000D01*
X132120000Y-85155000D02*
X127880000Y-85155000D01*
X131280000Y-87395000D02*
X131280000Y-85155000D01*
X127230000Y-86275000D02*
X127880000Y-86275000D01*
%TO.C,SW7*%
X103965000Y-82465000D02*
X103965000Y-68495000D01*
X117935000Y-82465000D02*
X103965000Y-82465000D01*
X117935000Y-68495000D02*
X117935000Y-82465000D01*
X103965000Y-68495000D02*
X117935000Y-68495000D01*
%TO.C,D16*%
X146280000Y-67225000D02*
X146930000Y-67225000D01*
X150570000Y-68345000D02*
X150570000Y-66105000D01*
X146930000Y-66105000D02*
X146930000Y-68345000D01*
X151170000Y-66105000D02*
X146930000Y-66105000D01*
X150330000Y-68345000D02*
X150330000Y-66105000D01*
X150450000Y-68345000D02*
X150450000Y-66105000D01*
X146930000Y-68345000D02*
X151170000Y-68345000D01*
X151820000Y-67225000D02*
X151170000Y-67225000D01*
X151170000Y-68345000D02*
X151170000Y-66105000D01*
%TO.C,SW18*%
X156035000Y-120565000D02*
X142065000Y-120565000D01*
X142065000Y-120565000D02*
X142065000Y-106595000D01*
X156035000Y-106595000D02*
X156035000Y-120565000D01*
X142065000Y-106595000D02*
X156035000Y-106595000D01*
%TO.C,SW5*%
X84915000Y-139615000D02*
X84915000Y-125645000D01*
X98885000Y-125645000D02*
X98885000Y-139615000D01*
X84915000Y-125645000D02*
X98885000Y-125645000D01*
X98885000Y-139615000D02*
X84915000Y-139615000D01*
%TO.C,D7*%
X113070000Y-68345000D02*
X113070000Y-66105000D01*
X108180000Y-67225000D02*
X108830000Y-67225000D01*
X113720000Y-67225000D02*
X113070000Y-67225000D01*
X113070000Y-66105000D02*
X108830000Y-66105000D01*
X112470000Y-68345000D02*
X112470000Y-66105000D01*
X108830000Y-68345000D02*
X113070000Y-68345000D01*
X112230000Y-68345000D02*
X112230000Y-66105000D01*
X112350000Y-68345000D02*
X112350000Y-66105000D01*
X108830000Y-66105000D02*
X108830000Y-68345000D01*
%TO.C,D21*%
X170220000Y-66105000D02*
X165980000Y-66105000D01*
X165980000Y-66105000D02*
X165980000Y-68345000D01*
X169620000Y-68345000D02*
X169620000Y-66105000D01*
X170870000Y-67225000D02*
X170220000Y-67225000D01*
X165980000Y-68345000D02*
X170220000Y-68345000D01*
X170220000Y-68345000D02*
X170220000Y-66105000D01*
X165330000Y-67225000D02*
X165980000Y-67225000D01*
X169380000Y-68345000D02*
X169380000Y-66105000D01*
X169500000Y-68345000D02*
X169500000Y-66105000D01*
%TO.C,SW16*%
X156035000Y-82465000D02*
X142065000Y-82465000D01*
X142065000Y-82465000D02*
X142065000Y-68495000D01*
X142065000Y-68495000D02*
X156035000Y-68495000D01*
X156035000Y-68495000D02*
X156035000Y-82465000D01*
%TO.C,SW13*%
X136985000Y-87545000D02*
X136985000Y-101515000D01*
X123015000Y-87545000D02*
X136985000Y-87545000D01*
X136985000Y-101515000D02*
X123015000Y-101515000D01*
X123015000Y-101515000D02*
X123015000Y-87545000D01*
%TO.C,D11*%
X131280000Y-65420000D02*
X131280000Y-63180000D01*
X132120000Y-63180000D02*
X127880000Y-63180000D01*
X127880000Y-65420000D02*
X132120000Y-65420000D01*
X131400000Y-65420000D02*
X131400000Y-63180000D01*
X132120000Y-65420000D02*
X132120000Y-63180000D01*
X127880000Y-63180000D02*
X127880000Y-65420000D01*
X132770000Y-64300000D02*
X132120000Y-64300000D01*
X131520000Y-65420000D02*
X131520000Y-63180000D01*
X127230000Y-64300000D02*
X127880000Y-64300000D01*
%TO.C,D17*%
X150570000Y-87395000D02*
X150570000Y-85155000D01*
X151170000Y-87395000D02*
X151170000Y-85155000D01*
X150450000Y-87395000D02*
X150450000Y-85155000D01*
X151170000Y-85155000D02*
X146930000Y-85155000D01*
X151820000Y-86275000D02*
X151170000Y-86275000D01*
X150330000Y-87395000D02*
X150330000Y-85155000D01*
X146930000Y-87395000D02*
X151170000Y-87395000D01*
X146280000Y-86275000D02*
X146930000Y-86275000D01*
X146930000Y-85155000D02*
X146930000Y-87395000D01*
%TO.C,SW4*%
X84915000Y-120565000D02*
X84915000Y-106595000D01*
X98885000Y-120565000D02*
X84915000Y-120565000D01*
X98885000Y-106595000D02*
X98885000Y-120565000D01*
X84915000Y-106595000D02*
X98885000Y-106595000D01*
%TO.C,SW6*%
X117935000Y-49445000D02*
X117935000Y-63415000D01*
X103965000Y-63415000D02*
X103965000Y-49445000D01*
X103965000Y-49445000D02*
X117935000Y-49445000D01*
X117935000Y-63415000D02*
X103965000Y-63415000D01*
%TO.C,SW9*%
X117935000Y-106595000D02*
X117935000Y-120565000D01*
X103965000Y-106595000D02*
X117935000Y-106595000D01*
X103965000Y-120565000D02*
X103965000Y-106595000D01*
X117935000Y-120565000D02*
X103965000Y-120565000D01*
%TO.C,SW21*%
X161115000Y-82465000D02*
X161115000Y-68495000D01*
X175085000Y-68495000D02*
X175085000Y-82465000D01*
X175085000Y-82465000D02*
X161115000Y-82465000D01*
X161115000Y-68495000D02*
X175085000Y-68495000D01*
%TO.C,D2*%
X93300000Y-68345000D02*
X93300000Y-66105000D01*
X94670000Y-67225000D02*
X94020000Y-67225000D01*
X89780000Y-66105000D02*
X89780000Y-68345000D01*
X89130000Y-67225000D02*
X89780000Y-67225000D01*
X94020000Y-66105000D02*
X89780000Y-66105000D01*
X89780000Y-68345000D02*
X94020000Y-68345000D01*
X93180000Y-68345000D02*
X93180000Y-66105000D01*
X93420000Y-68345000D02*
X93420000Y-66105000D01*
X94020000Y-68345000D02*
X94020000Y-66105000D01*
%TO.C,D12*%
X127880000Y-66317000D02*
X127880000Y-68557000D01*
X127230000Y-67437000D02*
X127880000Y-67437000D01*
X132770000Y-67437000D02*
X132120000Y-67437000D01*
X131400000Y-68557000D02*
X131400000Y-66317000D01*
X131520000Y-68557000D02*
X131520000Y-66317000D01*
X132120000Y-66317000D02*
X127880000Y-66317000D01*
X131280000Y-68557000D02*
X131280000Y-66317000D01*
X132120000Y-68557000D02*
X132120000Y-66317000D01*
X127880000Y-68557000D02*
X132120000Y-68557000D01*
%TO.C,D9*%
X113070000Y-106445000D02*
X113070000Y-104205000D01*
X108180000Y-105325000D02*
X108830000Y-105325000D01*
X113070000Y-104205000D02*
X108830000Y-104205000D01*
X112470000Y-106445000D02*
X112470000Y-104205000D01*
X113720000Y-105325000D02*
X113070000Y-105325000D01*
X108830000Y-106445000D02*
X113070000Y-106445000D01*
X108830000Y-104205000D02*
X108830000Y-106445000D01*
X112230000Y-106445000D02*
X112230000Y-104205000D01*
X112350000Y-106445000D02*
X112350000Y-104205000D01*
%TO.C,SW17*%
X142065000Y-87545000D02*
X156035000Y-87545000D01*
X156035000Y-101515000D02*
X142065000Y-101515000D01*
X142065000Y-101515000D02*
X142065000Y-87545000D01*
X156035000Y-87545000D02*
X156035000Y-101515000D01*
%TO.C,SW23*%
X175085000Y-130090000D02*
X161115000Y-130090000D01*
X161115000Y-116120000D02*
X175085000Y-116120000D01*
X161115000Y-130090000D02*
X161115000Y-116120000D01*
X175085000Y-116120000D02*
X175085000Y-130090000D01*
%TO.C,SW8*%
X103965000Y-87545000D02*
X117935000Y-87545000D01*
X103965000Y-101515000D02*
X103965000Y-87545000D01*
X117935000Y-87545000D02*
X117935000Y-101515000D01*
X117935000Y-101515000D02*
X103965000Y-101515000D01*
%TO.C,D18*%
X146930000Y-106445000D02*
X151170000Y-106445000D01*
X146280000Y-105325000D02*
X146930000Y-105325000D01*
X150570000Y-106445000D02*
X150570000Y-104205000D01*
X151820000Y-105325000D02*
X151170000Y-105325000D01*
X150330000Y-106445000D02*
X150330000Y-104205000D01*
X146930000Y-104205000D02*
X146930000Y-106445000D01*
X151170000Y-104205000D02*
X146930000Y-104205000D01*
X150450000Y-106445000D02*
X150450000Y-104205000D01*
X151170000Y-106445000D02*
X151170000Y-104205000D01*
%TO.C,SW14*%
X136985000Y-120565000D02*
X123015000Y-120565000D01*
X123015000Y-106595000D02*
X136985000Y-106595000D01*
X123015000Y-120565000D02*
X123015000Y-106595000D01*
X136985000Y-106595000D02*
X136985000Y-120565000D01*
%TO.C,SW10*%
X127460000Y-125645000D02*
X127460000Y-139615000D01*
X113490000Y-139615000D02*
X113490000Y-125645000D01*
X127460000Y-139615000D02*
X113490000Y-139615000D01*
X113490000Y-125645000D02*
X127460000Y-125645000D01*
%TO.C,D3*%
X94020000Y-85155000D02*
X89780000Y-85155000D01*
X94020000Y-87395000D02*
X94020000Y-85155000D01*
X89780000Y-85155000D02*
X89780000Y-87395000D01*
X89780000Y-87395000D02*
X94020000Y-87395000D01*
X94670000Y-86275000D02*
X94020000Y-86275000D01*
X93300000Y-87395000D02*
X93300000Y-85155000D01*
X93420000Y-87395000D02*
X93420000Y-85155000D01*
X93180000Y-87395000D02*
X93180000Y-85155000D01*
X89130000Y-86275000D02*
X89780000Y-86275000D01*
%TO.C,D6*%
X113070000Y-47055000D02*
X108830000Y-47055000D01*
X112470000Y-49295000D02*
X112470000Y-47055000D01*
X108830000Y-49295000D02*
X113070000Y-49295000D01*
X112230000Y-49295000D02*
X112230000Y-47055000D01*
X108180000Y-48175000D02*
X108830000Y-48175000D01*
X113070000Y-49295000D02*
X113070000Y-47055000D01*
X112350000Y-49295000D02*
X112350000Y-47055000D01*
X113720000Y-48175000D02*
X113070000Y-48175000D01*
X108830000Y-47055000D02*
X108830000Y-49295000D01*
%TO.C,D14*%
X132120000Y-106445000D02*
X132120000Y-104205000D01*
X132120000Y-104205000D02*
X127880000Y-104205000D01*
X127880000Y-106445000D02*
X132120000Y-106445000D01*
X132770000Y-105325000D02*
X132120000Y-105325000D01*
X127880000Y-104205000D02*
X127880000Y-106445000D01*
X131400000Y-106445000D02*
X131400000Y-104205000D01*
X131280000Y-106445000D02*
X131280000Y-104205000D01*
X127230000Y-105325000D02*
X127880000Y-105325000D01*
X131520000Y-106445000D02*
X131520000Y-104205000D01*
%TO.C,SW1*%
X98885000Y-49445000D02*
X98885000Y-63415000D01*
X98885000Y-63415000D02*
X84915000Y-63415000D01*
X84915000Y-63415000D02*
X84915000Y-49445000D01*
X84915000Y-49445000D02*
X98885000Y-49445000D01*
%TO.C,SW2*%
X84915000Y-68495000D02*
X98885000Y-68495000D01*
X98885000Y-68495000D02*
X98885000Y-82465000D01*
X98885000Y-82465000D02*
X84915000Y-82465000D01*
X84915000Y-82465000D02*
X84915000Y-68495000D01*
%TO.C,D15*%
X146930000Y-49295000D02*
X151170000Y-49295000D01*
X146280000Y-48175000D02*
X146930000Y-48175000D01*
X151820000Y-48175000D02*
X151170000Y-48175000D01*
X150450000Y-49295000D02*
X150450000Y-47055000D01*
X150330000Y-49295000D02*
X150330000Y-47055000D01*
X151170000Y-49295000D02*
X151170000Y-47055000D01*
X151170000Y-47055000D02*
X146930000Y-47055000D01*
X146930000Y-47055000D02*
X146930000Y-49295000D01*
X150570000Y-49295000D02*
X150570000Y-47055000D01*
%TO.C,D19*%
X150570000Y-125495000D02*
X150570000Y-123255000D01*
X146930000Y-123255000D02*
X146930000Y-125495000D01*
X150450000Y-125495000D02*
X150450000Y-123255000D01*
X151820000Y-124375000D02*
X151170000Y-124375000D01*
X146280000Y-124375000D02*
X146930000Y-124375000D01*
X146930000Y-125495000D02*
X151170000Y-125495000D01*
X151170000Y-125495000D02*
X151170000Y-123255000D01*
X150330000Y-125495000D02*
X150330000Y-123255000D01*
X151170000Y-123255000D02*
X146930000Y-123255000D01*
%TD*%
M02*
