%TF.GenerationSoftware,KiCad,Pcbnew,(6.0.4-0)*%
%TF.CreationDate,2022-04-04T05:11:45+09:00*%
%TF.ProjectId,mytenkey,6d797465-6e6b-4657-992e-6b696361645f,rev?*%
%TF.SameCoordinates,Original*%
%TF.FileFunction,Plated,1,2,PTH,Drill*%
%TF.FilePolarity,Positive*%
%FSLAX46Y46*%
G04 Gerber Fmt 4.6, Leading zero omitted, Abs format (unit mm)*
G04 Created by KiCad (PCBNEW (6.0.4-0)) date 2022-04-04 05:11:45*
%MOMM*%
%LPD*%
G01*
G04 APERTURE LIST*
%TA.AperFunction,ViaDrill*%
%ADD10C,0.500000*%
%TD*%
%TA.AperFunction,ComponentDrill*%
%ADD11C,0.800000*%
%TD*%
%TA.AperFunction,ComponentDrill*%
%ADD12C,1.100000*%
%TD*%
%TA.AperFunction,ComponentDrill*%
%ADD13C,1.200000*%
%TD*%
%TA.AperFunction,ComponentDrill*%
%ADD14C,1.500000*%
%TD*%
G04 APERTURE END LIST*
D10*
X121488200Y-101295200D03*
X134233000Y-49530000D03*
D11*
%TO.C,D1*%
X88090000Y-48175000D03*
%TO.C,D2*%
X88090000Y-67225000D03*
%TO.C,D3*%
X88090000Y-86275000D03*
%TO.C,D4*%
X88090000Y-105325000D03*
%TO.C,D5*%
X88090000Y-124375000D03*
%TO.C,D1*%
X95710000Y-48175000D03*
%TO.C,D2*%
X95710000Y-67225000D03*
%TO.C,D3*%
X95710000Y-86275000D03*
%TO.C,D4*%
X95710000Y-105325000D03*
%TO.C,D5*%
X95710000Y-124375000D03*
%TO.C,D6*%
X107140000Y-48175000D03*
%TO.C,D7*%
X107140000Y-67225000D03*
%TO.C,D8*%
X107140000Y-86275000D03*
%TO.C,D9*%
X107140000Y-105325000D03*
%TO.C,D6*%
X114760000Y-48175000D03*
%TO.C,D7*%
X114760000Y-67225000D03*
%TO.C,D8*%
X114760000Y-86275000D03*
%TO.C,D9*%
X114760000Y-105325000D03*
%TO.C,D10*%
X116665000Y-124375000D03*
X124285000Y-124375000D03*
%TO.C,D11*%
X126190000Y-64300000D03*
%TO.C,D12*%
X126190000Y-67437000D03*
%TO.C,D13*%
X126190000Y-86275000D03*
%TO.C,D14*%
X126190000Y-105325000D03*
%TO.C,D11*%
X133810000Y-64300000D03*
%TO.C,D12*%
X133810000Y-67437000D03*
%TO.C,D13*%
X133810000Y-86275000D03*
%TO.C,D14*%
X133810000Y-105325000D03*
%TO.C,D15*%
X145240000Y-48175000D03*
%TO.C,D16*%
X145240000Y-67225000D03*
%TO.C,D17*%
X145240000Y-86275000D03*
%TO.C,D18*%
X145240000Y-105325000D03*
%TO.C,D19*%
X145240000Y-124375000D03*
%TO.C,D15*%
X152860000Y-48175000D03*
%TO.C,D16*%
X152860000Y-67225000D03*
%TO.C,D17*%
X152860000Y-86275000D03*
%TO.C,D18*%
X152860000Y-105325000D03*
%TO.C,D19*%
X152860000Y-124375000D03*
%TO.C,D20*%
X164290000Y-48175000D03*
%TO.C,D21*%
X164290000Y-67225000D03*
%TO.C,D22*%
X164290000Y-86275000D03*
%TO.C,D23*%
X164290000Y-114850000D03*
%TO.C,D20*%
X171910000Y-48175000D03*
%TO.C,D21*%
X171910000Y-67225000D03*
%TO.C,D22*%
X171910000Y-86275000D03*
%TO.C,D23*%
X171910000Y-114850000D03*
D12*
%TO.C,U1*%
X122380000Y-48175000D03*
X122380000Y-50715000D03*
X122380000Y-53255000D03*
X122380000Y-55795000D03*
X122380000Y-58335000D03*
X122380000Y-60875000D03*
X122380000Y-63415000D03*
X122380000Y-65955000D03*
X122380000Y-68495000D03*
X122380000Y-71035000D03*
X122380000Y-73575000D03*
X122380000Y-76115000D03*
X137620000Y-48175000D03*
X137620000Y-50715000D03*
X137620000Y-53255000D03*
X137620000Y-55795000D03*
X137620000Y-58335000D03*
X137620000Y-60875000D03*
X137620000Y-63415000D03*
X137620000Y-65955000D03*
X137620000Y-68495000D03*
X137620000Y-71035000D03*
X137620000Y-73575000D03*
X137620000Y-76115000D03*
D13*
%TO.C,SW24*%
X141300200Y-48361600D03*
X141300200Y-54861600D03*
D14*
%TO.C,SW1*%
X88090000Y-53890000D03*
%TO.C,SW2*%
X88090000Y-72940000D03*
%TO.C,SW3*%
X88090000Y-91990000D03*
%TO.C,SW4*%
X88090000Y-111040000D03*
%TO.C,SW5*%
X88090000Y-130090000D03*
%TO.C,SW1*%
X94440000Y-51350000D03*
%TO.C,SW2*%
X94440000Y-70400000D03*
%TO.C,SW3*%
X94440000Y-89450000D03*
%TO.C,SW4*%
X94440000Y-108500000D03*
%TO.C,SW5*%
X94440000Y-127550000D03*
%TO.C,SW6*%
X107140000Y-53890000D03*
%TO.C,SW7*%
X107140000Y-72940000D03*
%TO.C,SW8*%
X107140000Y-91990000D03*
%TO.C,SW9*%
X107140000Y-111040000D03*
%TO.C,SW6*%
X113490000Y-51350000D03*
%TO.C,SW7*%
X113490000Y-70400000D03*
%TO.C,SW8*%
X113490000Y-89450000D03*
%TO.C,SW9*%
X113490000Y-108500000D03*
%TO.C,SW10*%
X116665000Y-130090000D03*
X123015000Y-127550000D03*
%TO.C,SW11*%
X126190000Y-53890000D03*
%TO.C,SW12*%
X126190000Y-72940000D03*
%TO.C,SW13*%
X126190000Y-91990000D03*
%TO.C,SW14*%
X126190000Y-111040000D03*
%TO.C,SW11*%
X132540000Y-51350000D03*
%TO.C,SW12*%
X132540000Y-70400000D03*
%TO.C,SW13*%
X132540000Y-89450000D03*
%TO.C,SW14*%
X132540000Y-108500000D03*
%TO.C,SW15*%
X145240000Y-53890000D03*
%TO.C,SW16*%
X145240000Y-72940000D03*
%TO.C,SW17*%
X145240000Y-91990000D03*
%TO.C,SW18*%
X145240000Y-111040000D03*
%TO.C,SW19*%
X145240000Y-130090000D03*
%TO.C,SW15*%
X151590000Y-51350000D03*
%TO.C,SW16*%
X151590000Y-70400000D03*
%TO.C,SW17*%
X151590000Y-89450000D03*
%TO.C,SW18*%
X151590000Y-108500000D03*
%TO.C,SW19*%
X151590000Y-127550000D03*
%TO.C,SW20*%
X164290000Y-53890000D03*
%TO.C,SW21*%
X164290000Y-72940000D03*
%TO.C,SW22*%
X164290000Y-91990000D03*
%TO.C,SW23*%
X164290000Y-120565000D03*
%TO.C,SW20*%
X170640000Y-51350000D03*
%TO.C,SW21*%
X170640000Y-70400000D03*
%TO.C,SW22*%
X170640000Y-89450000D03*
%TO.C,SW23*%
X170640000Y-118025000D03*
M02*
